<?xml version="1.0" standalone="no"?>
<!DOCTYPE svg PUBLIC "-//W3C//DTD SVG 1.1//EN" "http://www.w3.org/Graphics/SVG/1.1/DTD/svg11.dtd" >
<svg xmlns="http://www.w3.org/2000/svg">
<metadata></metadata>
<defs>
<font id="proxima_nova_ltsemibold" horiz-adv-x="493" >
<font-face units-per-em="2048" ascent="1618" descent="-430" />
<missing-glyph horiz-adv-x="526" />
<glyph unicode="&#xfb01;" horiz-adv-x="1124" d="M27 801v188h163v55q0 162 87 252t227 90q107 0 172 -38l-47 -160q-31 22 -86 22q-64 0 -100.5 -42t-36.5 -124v-55h200v-188h-200v-801h-216v801h-163zM743 1243q0 55 40 94t94 39q55 0 94 -39t39 -94t-39 -94t-94 -39q-54 0 -94 39t-40 94zM770 0v989h215v-989h-215z " />
<glyph unicode="&#xfb02;" horiz-adv-x="1124" d="M27 801v188h163v55q0 162 87 252t227 90q107 0 172 -38l-47 -160q-31 22 -86 22q-64 0 -100.5 -42t-36.5 -124v-55h200v-188h-200v-801h-216v801h-163zM770 0v1366h215v-1366h-215z" />
<glyph unicode="&#xfb03;" horiz-adv-x="1757" d="M27 801v188h163v55q0 159 85.5 250.5t228.5 91.5q154 0 237 -86l-84 -133q-46 43 -114 43q-64 0 -100.5 -42t-36.5 -124v-55h200v-188h-200v-801h-216v801h-163zM657 801v188h164v55q0 162 87 252t227 90q107 0 172 -38l-47 -160q-31 22 -86 22q-65 0 -101.5 -42.5 t-36.5 -123.5v-55h201v-188h-201v-801h-215v801h-164zM1376 1243q0 55 39.5 94t93.5 39q55 0 94 -39t39 -94t-39 -94t-94 -39q-54 0 -93.5 39t-39.5 94zM1403 0v989h215v-989h-215z" />
<glyph unicode="&#xfb04;" horiz-adv-x="1757" d="M27 801v188h163v55q0 159 85.5 250.5t228.5 91.5q154 0 237 -86l-84 -133q-46 43 -114 43q-64 0 -100.5 -42t-36.5 -124v-55h200v-188h-200v-801h-216v801h-163zM657 801v188h164v55q0 162 87 252t227 90q107 0 172 -38l-47 -160q-31 22 -86 22q-65 0 -101.5 -42.5 t-36.5 -123.5v-55h201v-188h-201v-801h-215v801h-164zM1403 0v1366h215v-1366h-215z" />
<glyph horiz-adv-x="0" />
<glyph horiz-adv-x="0" />
<glyph horiz-adv-x="682" />
<glyph unicode="&#xd;" horiz-adv-x="0" />
<glyph unicode=" "  horiz-adv-x="526" />
<glyph unicode="&#x09;" horiz-adv-x="526" />
<glyph unicode="&#xa0;" horiz-adv-x="526" />
<glyph unicode="!" horiz-adv-x="501" d="M109 121q0 59 41.5 101t99.5 42t100.5 -42t42.5 -101q0 -57 -42.5 -99t-100.5 -42t-99.5 42t-41.5 99zM119 1366h262l-37 -948h-186z" />
<glyph unicode="&#x22;" horiz-adv-x="776" d="M98 1266q0 50 35 85t86 35q50 0 85.5 -35.5t35.5 -84.5q0 -16 -18 -132t-36 -224l-18 -109h-98q-72 430 -72 465zM438 1266q0 50 35 85t86 35q49 0 84 -35t35 -85q0 -16 -18 -132t-36 -224l-18 -109h-96q-72 430 -72 465z" />
<glyph unicode="#" horiz-adv-x="1241" d="M39 356l45 142h209l121 368h-209l43 140h215l119 360h163l-118 -360h207l118 360h164l-121 -360h207l-41 -140h-213l-123 -368h215l-43 -142h-219l-119 -356h-163l120 356h-208l-119 -356h-164l119 356h-205zM457 498h205l122 368h-206z" />
<glyph unicode="$" horiz-adv-x="1239" d="M72 193l133 184q140 -151 344 -182v395q-52 13 -91 24.5t-87 30.5t-82 39.5t-69 50.5t-56.5 65.5t-35 83t-13.5 103.5q0 158 119 268t315 127v191h164v-193q248 -27 411 -184l-137 -178q-114 111 -274 143v-352q63 -17 108 -32t100.5 -39t93.5 -54t72 -70.5t51 -95.5 t17 -121q0 -80 -26.5 -150t-79 -126.5t-138.5 -93.5t-198 -47v-185h-164v185q-305 23 -477 213zM360 1004q0 -56 49 -91t140 -61v319q-87 -9 -138 -54t-51 -113zM713 193q99 16 148.5 67t49.5 115t-51 103t-147 69v-354z" />
<glyph unicode="%" horiz-adv-x="1527" d="M57 1044q0 147 94 244.5t244 97.5q152 0 247 -97.5t95 -244.5q0 -144 -95 -239.5t-247 -95.5q-150 0 -244 95t-94 240zM215 1044q0 -87 51 -143.5t129 -56.5q80 0 131.5 56t51.5 144q0 92 -51.5 148.5t-131.5 56.5q-79 0 -129.5 -57t-50.5 -148zM264 0l873 1366h137 l-875 -1366h-135zM793 311q0 147 93.5 244.5t243.5 97.5t245 -97.5t95 -244.5q0 -144 -95 -240t-245 -96t-243.5 95.5t-93.5 240.5zM950 311q0 -89 50 -144.5t130 -55.5t131.5 55.5t51.5 144.5q0 92 -51.5 148.5t-131.5 56.5t-130 -56.5t-50 -148.5z" />
<glyph unicode="&#x26;" horiz-adv-x="1318" d="M59 365q0 61 16.5 114t42.5 93t66.5 76.5t80 62.5t91.5 53q-96 172 -96 299q0 138 106 230.5t265 92.5q145 0 241.5 -75.5t96.5 -204.5q0 -43 -10.5 -82t-26.5 -69t-44.5 -59.5t-54 -50t-65 -44t-68 -38t-73.5 -36.5q66 -88 135 -168q82 -101 135 -158q89 139 135 285 l176 -80q-96 -213 -190 -338q113 -121 266 -268h-280q-45 39 -121 119q-171 -144 -383 -144q-192 0 -316.5 101.5t-124.5 288.5zM289 383q0 -108 69.5 -172t167.5 -64q120 0 236 97q-128 139 -168 188q-90 108 -152 197q-153 -100 -153 -246zM477 1059q0 -88 68 -207 q54 26 91.5 48.5t72 52t52 65.5t17.5 78q0 61 -38.5 96t-98.5 35q-70 0 -117 -47.5t-47 -120.5z" />
<glyph unicode="'" horiz-adv-x="438" d="M98 1266q0 50 35 85t86 35q50 0 85.5 -35.5t35.5 -84.5q0 -16 -18 -132t-36 -224l-18 -109h-98q-72 430 -72 465z" />
<glyph unicode="(" horiz-adv-x="565" d="M86 498q0 247 82 486.5t227 418.5l133 -100q-107 -201 -158 -387.5t-51 -417.5t51 -417t158 -386l-133 -103q-145 177 -227 418t-82 488z" />
<glyph unicode=")" horiz-adv-x="565" d="M35 -305q108 199 159.5 385t51.5 418t-51.5 418t-159.5 387l133 100q146 -179 228.5 -418.5t82.5 -486.5q0 -248 -82.5 -488.5t-228.5 -417.5z" />
<glyph unicode="*" horiz-adv-x="708" d="M59 973l203 104l-203 105l56 98l192 -123l-10 229h115l-13 -229l193 123l57 -98l-203 -105l203 -104l-57 -99l-193 125l13 -229h-115l10 229l-192 -125z" />
<glyph unicode="+" horiz-adv-x="1028" d="M59 621v139h379v409h152v-409h379v-139h-379v-424h-152v424h-379z" />
<glyph unicode="," horiz-adv-x="501" d="M106 123q0 58 41.5 99.5t98.5 41.5q66 0 113 -50t47 -136q0 -103 -53 -195.5t-140 -154.5l-96 79q50 30 93.5 85.5t53.5 107.5q-18 -6 -35 -6q-53 0 -88 36t-35 93z" />
<glyph unicode="-" horiz-adv-x="614" d="M61 403v185h492v-185h-492z" />
<glyph unicode="." horiz-adv-x="501" d="M106 121q0 58 42.5 100.5t101.5 42.5q58 0 100.5 -42t42.5 -101t-42.5 -101.5t-100.5 -42.5t-101 42.5t-43 101.5z" />
<glyph unicode="/" horiz-adv-x="645" d="M0 -41l485 1448h160l-485 -1448h-160z" />
<glyph unicode="0" horiz-adv-x="1261" d="M84 682q0 106 19.5 205.5t63 190.5t106 159t155 108.5t203.5 40.5t203.5 -40.5t155 -108.5t106 -159t63 -190.5t19.5 -205.5t-19.5 -206t-63 -191.5t-106 -160t-155 -109t-203.5 -40.5t-203.5 40.5t-155 109t-106 160t-63 191.5t-19.5 206zM328 682q0 -102 16.5 -187.5 t51 -156t94.5 -110.5t141 -40t141 40t94.5 110.5t51 156t16.5 187.5t-16.5 187.5t-51 155.5t-94.5 109.5t-141 39.5t-141 -39.5t-94.5 -109.5t-51 -155.5t-16.5 -187.5z" />
<glyph unicode="1" horiz-adv-x="778" d="M31 969l393 397h209v-1366h-240v1055l-223 -232z" />
<glyph unicode="2" horiz-adv-x="1218" d="M84 1167q88 106 222.5 162.5t281.5 56.5q135 0 245.5 -47.5t180 -145t69.5 -228.5q0 -92 -40 -183.5t-123 -186t-185 -184t-250 -200.5h607v-211h-990v188q145 110 240 184t186 151t143 131t94 110t58.5 104t16.5 97q0 101 -73 155t-175 54q-225 0 -369 -164z" />
<glyph unicode="3" horiz-adv-x="1175" d="M49 197l129 157q66 -77 168 -121.5t211 -44.5q134 0 209.5 56.5t75.5 152.5q0 193 -303 193q-138 0 -158 -2v215q25 -2 158 -2q127 0 203.5 45t76.5 135q0 92 -77.5 142.5t-198.5 50.5q-201 0 -353 -152l-122 149q83 98 209 156.5t288 58.5q224 0 359 -99t135 -269 q0 -65 -26 -121.5t-69.5 -94.5t-95 -62.5t-106.5 -34.5q52 -5 106 -28t102 -62.5t78.5 -103t30.5 -138.5q0 -176 -140.5 -287t-373.5 -111q-174 0 -308 62t-208 160z" />
<glyph unicode="4" horiz-adv-x="1187" d="M57 309v193l561 864h330v-846h182v-211h-182v-309h-239v309h-652zM293 520h416v631z" />
<glyph unicode="5" horiz-adv-x="1228" d="M115 186l137 164q143 -162 369 -162q126 0 203 69t77 171q0 111 -74.5 177.5t-199.5 66.5q-174 0 -299 -119l-170 49v764h895v-211h-656v-395q52 52 134 85.5t176 33.5q116 0 214 -51t160 -153t62 -237q0 -211 -144.5 -337t-375.5 -126q-329 0 -508 211z" />
<glyph unicode="6" horiz-adv-x="1230" d="M84 680q0 201 67 358.5t205 252.5t330 95q239 0 393 -151l-112 -182q-58 61 -123 91t-158 30q-110 0 -193 -63t-125 -164.5t-42 -223.5q0 -27 2 -39q50 76 151 133t215 57q93 0 175 -28.5t145.5 -82t100 -138.5t36.5 -191q0 -195 -140 -327t-364 -132q-117 0 -212 37 t-159.5 101.5t-108.5 154.5t-63.5 193t-19.5 219zM330 508q4 -47 16.5 -90t36.5 -86t57.5 -74t83.5 -50.5t111 -19.5q126 0 200 73t74 165q0 120 -79.5 182t-200.5 62q-87 0 -166.5 -44t-132.5 -118z" />
<glyph unicode="7" horiz-adv-x="1089" d="M55 1155v211h985v-166l-530 -1200h-262l516 1155h-709z" />
<glyph unicode="8" horiz-adv-x="1218" d="M86 350q0 124 87 217.5t220 137.5q-127 40 -205.5 120.5t-78.5 202.5q0 91 43.5 161.5t116 112.5t159.5 63t182 21q74 0 144.5 -12.5t136 -41t114 -69.5t78 -101.5t29.5 -133.5q0 -122 -79.5 -202t-207.5 -121q133 -44 220.5 -137.5t87.5 -217.5q0 -118 -73.5 -204.5 t-190.5 -128.5t-259 -42q-144 0 -260.5 41.5t-190 128t-73.5 205.5zM328 381q0 -87 81 -140t201 -53q118 0 199.5 53t81.5 140q0 50 -31.5 91.5t-78.5 66t-91 39t-80 18.5q-28 -3 -62.5 -12.5t-74 -27.5t-71 -41t-53 -58.5t-21.5 -75.5zM350 991q0 -45 27.5 -81.5t72 -58.5 t83 -34t77.5 -18q39 6 77 18.5t82 34t71.5 58t27.5 81.5q0 84 -73 133.5t-185 49.5q-115 0 -187.5 -49t-72.5 -134z" />
<glyph unicode="9" horiz-adv-x="1230" d="M78 930q0 126 61.5 230t177.5 166.5t265 62.5q117 0 212 -37t159.5 -102t108.5 -155t63.5 -193t19.5 -220q0 -118 -24.5 -224t-74 -194t-120.5 -152t-169 -99.5t-214 -35.5q-239 0 -391 152l110 180q58 -59 123.5 -89t157.5 -30q90 0 160.5 38.5t113 103t64.5 143 t22 164.5v41q-52 -77 -153 -135t-213 -58q-126 0 -228.5 49t-166.5 151.5t-64 242.5zM322 938q0 -119 79.5 -181.5t198.5 -62.5q87 0 167.5 43t131.5 117q-5 59 -24 113t-53.5 102.5t-93.5 77.5t-134 29q-125 0 -198.5 -74t-73.5 -164z" />
<glyph unicode=":" horiz-adv-x="501" d="M106 121q0 58 42.5 100.5t101.5 42.5q58 0 100.5 -42t42.5 -101t-42.5 -101.5t-100.5 -42.5t-101 42.5t-43 101.5zM106 860q0 58 43 101t101 43t100.5 -42.5t42.5 -101.5q0 -58 -42.5 -100.5t-100.5 -42.5q-59 0 -101.5 42.5t-42.5 100.5z" />
<glyph unicode=";" horiz-adv-x="501" d="M106 129q0 58 41.5 99.5t98.5 41.5q66 0 113 -50t47 -136q0 -103 -53 -195.5t-140 -154.5l-96 80q51 30 94 85.5t53 106.5q-18 -6 -35 -6q-53 0 -88 36t-35 93zM106 860q0 58 43 101t101 43t100.5 -42.5t42.5 -101.5q0 -57 -42.5 -100t-100.5 -43t-101 43t-43 100z" />
<glyph unicode="&#x3c;" horiz-adv-x="1028" d="M59 608v154l910 426v-166l-748 -338l748 -336v-164z" />
<glyph unicode="=" horiz-adv-x="1028" d="M59 420v137h910v-137h-910zM59 809v139h910v-139h-910z" />
<glyph unicode="&#x3e;" horiz-adv-x="1028" d="M59 184v164l746 336l-746 338v166l910 -426v-154z" />
<glyph unicode="?" horiz-adv-x="937" d="M27 1184q79 96 194 149t252 53q190 0 303 -90t113 -231q0 -71 -27 -130t-68 -96.5t-88.5 -74t-88.5 -64.5t-68 -66t-27 -81q0 -54 45 -92l-180 -60q-74 71 -74 174q0 51 18 94.5t47.5 74.5t64.5 58.5t70 52t64.5 49.5t47.5 56t18 66q0 64 -49.5 106t-144.5 42 q-168 0 -285 -144zM317 121q0 58 42.5 100.5t101.5 42.5t101 -42t42 -101t-42.5 -101.5t-100.5 -42.5q-59 0 -101.5 42.5t-42.5 101.5z" />
<glyph unicode="@" horiz-adv-x="1603" d="M72 500q0 214 114 401t301.5 296.5t397.5 109.5q189 0 338 -87t228 -231.5t79 -318.5q0 -120 -35 -217.5t-91.5 -156.5t-123 -90.5t-133.5 -31.5q-86 0 -136.5 45.5t-58.5 112.5l-2 12q-55 -77 -137.5 -123.5t-169.5 -46.5q-144 0 -229.5 94.5t-85.5 245.5 q0 136 67.5 253.5t176 185t227.5 67.5q91 0 158.5 -40.5t99.5 -105.5l24 115h193l-111 -522q-4 -24 -4 -47q0 -48 23.5 -73t60.5 -25q32 0 66 19.5t66 58.5t52.5 109.5t20.5 160.5q0 249 -156.5 405t-414.5 156q-115 0 -225.5 -38.5t-200.5 -107.5t-159 -159t-107 -199.5 t-38 -222.5q0 -161 75 -292.5t208.5 -206.5t298.5 -75q198 0 377 113l41 -57q-200 -129 -426 -129q-183 0 -332 85t-233 232t-84 326zM526 528q0 -89 50.5 -144.5t136.5 -55.5q150 0 260 155l55 258q-21 49 -68.5 87t-117.5 38q-131 0 -223.5 -103.5t-92.5 -234.5z" />
<glyph unicode="A" horiz-adv-x="1378" d="M2 0l537 1366h299l536 -1366h-272l-101 262h-626l-101 -262h-272zM442 473h492l-246 651z" />
<glyph unicode="B" horiz-adv-x="1327" d="M145 0v1366h672q182 0 285.5 -99t103.5 -249q0 -124 -68.5 -208t-168.5 -105q110 -17 187 -114t77 -222q0 -163 -105 -266t-292 -103h-691zM385 211h393q98 0 153.5 50.5t55.5 139.5q0 81 -55 135t-154 54h-393v-379zM385 801h383q90 0 141.5 49t51.5 127 q0 79 -51.5 128.5t-141.5 49.5h-383v-354z" />
<glyph unicode="C" horiz-adv-x="1396" d="M84 682q0 154 55.5 287t151.5 224.5t228 143.5t282 52q357 0 549 -308l-205 -104q-51 88 -144 143.5t-200 55.5q-203 0 -337 -139.5t-134 -354.5t134 -354.5t337 -139.5q108 0 200.5 55t143.5 144l205 -104q-195 -308 -549 -308q-150 0 -282 52t-228 143.5t-151.5 224.5 t-55.5 287z" />
<glyph unicode="D" horiz-adv-x="1454" d="M145 0v1366h508q210 0 373 -87t252.5 -242.5t89.5 -354.5t-89.5 -354t-252.5 -241.5t-373 -86.5h-508zM385 211h268q144 0 252 64.5t162.5 170.5t54.5 236q0 206 -124 339.5t-345 133.5h-268v-944z" />
<glyph unicode="E" horiz-adv-x="1181" d="M145 0v1366h936v-211h-696v-354h682v-211h-682v-379h696v-211h-936z" />
<glyph unicode="F" horiz-adv-x="1150" d="M145 0v1366h936v-211h-696v-354h682v-211h-682v-590h-240z" />
<glyph unicode="G" horiz-adv-x="1468" d="M84 682q0 157 56.5 290.5t153.5 224t228.5 141.5t278.5 51q351 0 551 -285l-197 -111q-57 81 -150 132t-204 51q-203 0 -337 -139.5t-134 -354.5t134 -355.5t337 -140.5q96 0 183 37t140 86v213h-407v211h647v-512q-105 -117 -247.5 -182.5t-315.5 -65.5 q-198 0 -360.5 87t-259.5 250t-97 372z" />
<glyph unicode="H" horiz-adv-x="1480" d="M145 0v1366h240v-559h711v559h239v-1366h-239v596h-711v-596h-240z" />
<glyph unicode="I" horiz-adv-x="530" d="M145 0v1366h240v-1366h-240z" />
<glyph unicode="J" horiz-adv-x="985" d="M16 119l111 182q105 -113 233 -113q110 0 175 67.5t65 180.5v930h240v-934q0 -225 -127 -341t-334 -116q-227 0 -363 144z" />
<glyph unicode="K" horiz-adv-x="1271" d="M145 0v1366h240v-651l535 651h297l-555 -645l595 -721h-294l-459 575l-119 -139v-436h-240z" />
<glyph unicode="L" horiz-adv-x="1058" d="M145 0v1366h240v-1155h602v-211h-842z" />
<glyph unicode="M" horiz-adv-x="1710" d="M145 0v1366h338l371 -899l373 899h338v-1366h-240v1014l-420 -1014h-102l-418 1014v-1014h-240z" />
<glyph unicode="N" horiz-adv-x="1474" d="M145 0v1366h246l699 -948v948h239v-1366h-231l-713 975v-975h-240z" />
<glyph unicode="O" horiz-adv-x="1566" d="M84 682q0 202 88.5 363.5t248 252.5t361.5 91q151 0 281.5 -53.5t222 -147t143.5 -224.5t52 -282t-52 -282t-143.5 -224.5t-222 -147t-281.5 -53.5q-202 0 -361.5 91t-248 252.5t-88.5 363.5zM330 682q0 -214 124 -354t328 -140q203 0 328 140t125 354q0 215 -125 354.5 t-328 139.5q-204 0 -328 -139t-124 -355z" />
<glyph unicode="P" horiz-adv-x="1245" d="M145 0v1366h600q207 0 327 -123.5t120 -304.5t-120.5 -304.5t-326.5 -123.5h-360v-510h-240zM385 721h328q102 0 167.5 60t65.5 157t-65.5 157t-167.5 60h-328v-434z" />
<glyph unicode="Q" horiz-adv-x="1566" d="M84 682q0 202 88.5 363.5t248 252.5t361.5 91q151 0 281.5 -53.5t222 -147t143.5 -224.5t52 -282q0 -293 -183 -492l113 -127l-166 -139l-119 133q-152 -82 -344 -82q-202 0 -361.5 91t-248 252.5t-88.5 363.5zM330 682q0 -214 124 -354t328 -140q106 0 193 41l-168 193 l166 137l168 -192q94 129 94 315q0 215 -125 354.5t-328 139.5q-204 0 -328 -139t-124 -355z" />
<glyph unicode="R" horiz-adv-x="1286" d="M145 0v1366h600q201 0 324 -119t123 -309q0 -88 -27 -161t-73.5 -121.5t-103 -78.5t-120.5 -40l334 -537h-276l-303 510h-238v-510h-240zM385 721h328q102 0 167.5 60t65.5 157t-65.5 157t-167.5 60h-328v-434z" />
<glyph unicode="S" horiz-adv-x="1216" d="M57 193l133 184q78 -83 189 -136t244 -53q137 0 205.5 55.5t68.5 131.5q0 46 -27.5 80t-73.5 55.5t-105.5 38.5t-125.5 33.5t-132.5 36t-126 50t-105.5 71t-73.5 103.5t-27.5 144q0 171 138.5 285t359.5 114q316 0 512 -190l-137 -178q-77 77 -180.5 116.5t-214.5 39.5 q-105 0 -168.5 -46.5t-63.5 -123.5q0 -40 27 -70.5t73 -50t106 -36t126 -33.5t131.5 -37.5t125.5 -52.5t106 -74t73 -106.5t27 -146.5q0 -87 -31.5 -162t-94 -134t-166 -92.5t-237.5 -33.5q-351 0 -555 218z" />
<glyph unicode="T" horiz-adv-x="1181" d="M57 1155v211h1067v-211h-413v-1155h-240v1155h-414z" />
<glyph unicode="U" horiz-adv-x="1472" d="M145 539v827h242v-819q0 -166 90.5 -262.5t259.5 -96.5q167 0 257.5 96.5t90.5 262.5v819h242v-825q0 -262 -150.5 -414t-439.5 -152q-290 0 -441 152t-151 412z" />
<glyph unicode="V" horiz-adv-x="1378" d="M2 1366h272l414 -1106l414 1106h272l-536 -1366h-299z" />
<glyph unicode="W" horiz-adv-x="1849" d="M12 1366h269l266 -1053l282 1053h191l283 -1053l264 1053h268l-389 -1366h-256l-266 1008l-265 -1008h-256z" />
<glyph unicode="X" horiz-adv-x="1353" d="M6 0l512 700l-481 666h287l352 -502l350 502h289l-479 -664l510 -702h-287l-383 535l-383 -535h-287z" />
<glyph unicode="Y" horiz-adv-x="1304" d="M2 1366h274l377 -586l373 586h274l-528 -799v-567h-240v567z" />
<glyph unicode="Z" horiz-adv-x="1206" d="M90 0v195l698 960h-698v211h1010v-195l-699 -960h713v-211h-1024z" />
<glyph unicode="[" horiz-adv-x="540" d="M90 -389v1778h416v-148h-258v-1483h258v-147h-416z" />
<glyph unicode="\" horiz-adv-x="645" d="M0 1407h160l485 -1448h-160z" />
<glyph unicode="]" horiz-adv-x="540" d="M35 -242h258v1483h-258v148h416v-1778h-416v147z" />
<glyph unicode="^" horiz-adv-x="894" d="M39 682l330 684h159l328 -684h-164l-246 535l-243 -535h-164z" />
<glyph unicode="_" horiz-adv-x="1155" d="M-6 -82h1167v-147h-1167v147z" />
<glyph unicode="`" horiz-adv-x="491" d="M0 1434h205l287 -295h-154z" />
<glyph unicode="a" horiz-adv-x="1097" d="M80 303q0 82 30.5 145.5t81 101t110 56.5t122.5 19q210 0 319 -127v147q0 85 -63.5 134.5t-167.5 49.5q-166 0 -293 -124l-88 149q169 160 416 160q86 0 157.5 -19.5t129.5 -60t91 -112t33 -167.5v-655h-215v106q-56 -63 -138.5 -97t-180.5 -34q-62 0 -122 21 t-110.5 60.5t-81 103.5t-30.5 143zM297 299q0 -79 59.5 -127.5t151.5 -48.5q73 0 136 26.5t99 75.5v150q-36 49 -99 75.5t-136 26.5q-92 0 -151.5 -48.5t-59.5 -129.5z" />
<glyph unicode="b" horiz-adv-x="1189" d="M139 0v1366h215v-514q58 78 141 120t177 42q193 0 315.5 -142t122.5 -378q0 -240 -122.5 -379.5t-315.5 -139.5q-95 0 -177.5 42.5t-140.5 117.5v-135h-215zM354 297q36 -56 108 -93.5t146 -37.5q128 0 204.5 91t76.5 237t-76.5 237.5t-204.5 91.5q-74 0 -146 -39 t-108 -96v-391z" />
<glyph unicode="c" horiz-adv-x="1017" d="M78 496q0 225 143.5 371.5t368.5 146.5q248 0 379 -176l-142 -131q-82 116 -227 116q-134 0 -216.5 -91t-82.5 -236q0 -146 82.5 -238t216.5 -92q142 0 227 117l142 -131q-132 -177 -379 -177q-225 0 -368.5 147t-143.5 374z" />
<glyph unicode="d" horiz-adv-x="1189" d="M78 494q0 236 122.5 378t317.5 142q92 0 175 -42t143 -120v514h215v-1366h-215v135q-58 -75 -141 -117.5t-177 -42.5q-195 0 -317.5 139.5t-122.5 379.5zM301 494q0 -144 76.5 -236t202.5 -92q75 0 147 37.5t109 93.5v393q-38 57 -109.5 95t-146.5 38 q-126 0 -202.5 -91.5t-76.5 -237.5z" />
<glyph unicode="e" horiz-adv-x="1140" d="M78 496q0 142 63.5 260.5t179.5 188t259 69.5q220 0 353.5 -151.5t133.5 -387.5v-51h-764q13 -117 96.5 -194.5t218.5 -77.5q75 0 152.5 28.5t128.5 79.5l98 -141q-73 -70 -177 -107t-224 -37q-225 0 -371.5 144.5t-146.5 376.5zM301 575h557q-2 46 -18.5 90.5 t-48.5 84.5t-86.5 64t-124.5 24q-66 0 -119.5 -23.5t-86 -63t-51 -84t-22.5 -92.5z" />
<glyph unicode="f" horiz-adv-x="630" d="M27 801v188h163v55q0 159 85.5 250.5t228.5 91.5q154 0 237 -86l-84 -133q-46 43 -114 43q-64 0 -100.5 -42t-36.5 -124v-55h200v-188h-200v-801h-216v801h-163z" />
<glyph unicode="g" horiz-adv-x="1187" d="M78 506q0 235 122 371.5t316 136.5q94 0 176 -42t142 -120v137h215v-938q0 -103 -30 -183.5t-78.5 -130t-116 -81.5t-136.5 -44.5t-147 -12.5q-131 0 -228.5 33t-185.5 114l100 156q110 -127 314 -127q56 0 105.5 14t93 43.5t69 83.5t25.5 127v119q-59 -76 -141.5 -120 t-176.5 -44q-194 0 -316 134.5t-122 373.5zM301 506q0 -143 76 -230.5t203 -87.5q74 0 146 39t108 95v368q-36 56 -108 94.5t-146 38.5q-127 0 -203 -87t-76 -230z" />
<glyph unicode="h" horiz-adv-x="1163" d="M139 0v1366h215v-512q56 66 149 113t202 47q159 0 239 -80t80 -234v-700h-215v623q0 109 -51.5 154.5t-149.5 45.5q-77 0 -144.5 -38.5t-109.5 -94.5v-690h-215z" />
<glyph unicode="i" d="M113 1243q0 55 39.5 94t93.5 39q56 0 94.5 -39t38.5 -94t-38.5 -94t-94.5 -39q-54 0 -93.5 39t-39.5 94zM139 0v989h215v-989h-215z" />
<glyph unicode="j" d="M-207 -330l64 160q62 -55 137 -55q66 0 105.5 42t39.5 126v1046h215v-1046q0 -161 -83.5 -252.5t-243.5 -91.5q-82 0 -131 16t-103 55zM113 1243q0 55 39.5 94t93.5 39q56 0 94.5 -39t38.5 -94t-38.5 -94t-94.5 -39q-54 0 -93.5 39t-39.5 94z" />
<glyph unicode="k" horiz-adv-x="1077" d="M139 0v1366h215v-854l437 477h266l-412 -448l420 -541h-270l-303 408l-138 -142v-266h-215z" />
<glyph unicode="l" d="M139 0v1366h215v-1366h-215z" />
<glyph unicode="m" horiz-adv-x="1705" d="M139 0v989h215v-135q37 56 128.5 108t193.5 52q107 0 175.5 -49t94.5 -134q47 74 139.5 128.5t196.5 54.5q138 0 211.5 -75t73.5 -224v-715h-215v645q0 83 -39.5 130.5t-122.5 47.5q-67 0 -130 -39.5t-99 -91.5v-692h-216v645q0 178 -163 178q-66 0 -128.5 -39.5 t-99.5 -93.5v-690h-215z" />
<glyph unicode="n" horiz-adv-x="1161" d="M139 0v989h215v-135q56 66 148 113t200 47q158 0 239 -82t81 -236v-696h-215v618q0 110 -51.5 157.5t-147.5 47.5q-78 0 -146 -38.5t-108 -94.5v-690h-215z" />
<glyph unicode="o" horiz-adv-x="1173" d="M78 496q0 106 36 200.5t100.5 165t160.5 111.5t211 41q154 0 271.5 -71t178 -187.5t60.5 -259.5q0 -144 -60.5 -261.5t-178 -188.5t-271.5 -71q-115 0 -211 41.5t-160.5 112t-100.5 165.5t-36 202zM301 496q0 -138 77 -234t208 -96q133 0 209.5 95.5t76.5 234.5 q0 137 -76.5 232t-209.5 95q-131 0 -208 -95t-77 -232z" />
<glyph unicode="p" horiz-adv-x="1183" d="M139 -377v1366h215v-135q56 75 139.5 117.5t178.5 42.5q196 0 317 -139t121 -379q0 -241 -121.5 -381t-316.5 -140q-94 0 -176 41.5t-142 120.5v-514h-215zM354 299q36 -55 108.5 -94t145.5 -39q126 0 202.5 92t76.5 238q0 144 -76.5 235.5t-202.5 91.5q-74 0 -146 -38.5 t-108 -94.5v-391z" />
<glyph unicode="q" horiz-adv-x="1183" d="M74 496q0 240 121 379t317 139q95 0 177.5 -42.5t139.5 -117.5v135h215v-1366h-215v514q-122 -162 -317 -162t-316.5 140t-121.5 381zM297 496q0 -146 76 -238t202 -92q73 0 145.5 39t108.5 94v391q-36 56 -108 94.5t-146 38.5q-126 0 -202 -91.5t-76 -235.5z" />
<glyph unicode="r" horiz-adv-x="710" d="M139 0v989h215v-145q59 74 144 121t178 47v-213q-27 6 -68 6q-68 0 -145 -39.5t-109 -91.5v-674h-215z" />
<glyph unicode="s" horiz-adv-x="966" d="M53 129l99 156q56 -57 149.5 -98.5t185.5 -41.5q94 0 144.5 37t50.5 97q0 39 -33 65t-85.5 40.5t-116.5 27.5t-128 33t-116.5 50t-85.5 85.5t-33 132.5q0 127 104 214t285 87q227 0 385 -140l-90 -151q-46 53 -124.5 86t-168.5 33q-84 0 -134 -34t-50 -87q0 -31 25.5 -53 t67.5 -34t96 -25.5t110 -25t110 -35.5t96 -55.5t67.5 -85.5t25.5 -124q0 -135 -109 -221.5t-303 -86.5q-127 0 -237.5 40t-186.5 114z" />
<glyph unicode="t" horiz-adv-x="653" d="M18 801v188h164v271h215v-271h201v-188h-201v-518q0 -52 25 -84.5t70 -32.5q29 0 56 10.5t40 24.5l51 -162q-67 -64 -203 -64q-124 0 -189 65.5t-65 188.5v572h-164z" />
<glyph unicode="u" horiz-adv-x="1161" d="M139 289v700h215v-622q0 -110 51 -155.5t148 -45.5q77 0 145 37t109 92v694h215v-989h-215v131q-60 -67 -150.5 -111.5t-199.5 -44.5q-158 0 -238 80t-80 234z" />
<glyph unicode="v" horiz-adv-x="1030" d="M-4 989h229l289 -741l289 741h231l-403 -989h-232z" />
<glyph unicode="w" horiz-adv-x="1544" d="M10 989h223l209 -719l236 719h188l236 -719l209 719h223l-307 -989h-226l-229 725l-229 -725h-226z" />
<glyph unicode="x" horiz-adv-x="1015" d="M10 0l363 508l-342 481h241l236 -336l233 336h242l-342 -481l365 -508h-242l-256 365l-258 -365h-240z" />
<glyph unicode="y" horiz-adv-x="1030" d="M-4 989h229l289 -741l289 741h231l-477 -1167q-49 -120 -133 -170.5t-207 -52.5q-67 0 -121 14l33 192q37 -16 82 -16q53 0 86.5 19t54.5 67l49 113z" />
<glyph unicode="z" horiz-adv-x="974" d="M94 0v162l490 639h-490v188h776v-158l-493 -645h502v-186h-785z" />
<glyph unicode="{" horiz-adv-x="565" d="M8 436v127q52 0 79.5 39.5t27.5 99.5v381q0 136 86.5 221t204.5 85h124v-148h-124q-55 0 -93.5 -44.5t-38.5 -113.5v-401q0 -142 -94 -182q94 -40 94 -183v-401q0 -68 38.5 -113t93.5 -45h124v-147h-124q-118 0 -204.5 83.5t-86.5 219.5v383q0 60 -27.5 99.5t-79.5 39.5z " />
<glyph unicode="|" horiz-adv-x="438" d="M145 -41v1448h148v-1448h-148z" />
<glyph unicode="}" horiz-adv-x="565" d="M35 -242h125q55 0 93 45t38 113v401q0 143 94 183q-94 40 -94 182v401q0 69 -38 113.5t-93 44.5h-125v148h125q118 0 204.5 -85t86.5 -221v-381q0 -60 27 -99.5t79 -39.5v-127q-52 0 -79 -39.5t-27 -99.5v-383q0 -136 -86.5 -219.5t-204.5 -83.5h-125v147z" />
<glyph unicode="~" horiz-adv-x="1038" d="M53 870q6 67 15 122.5t24 114.5t37 103t52.5 80t73 55t95.5 19t93.5 -20.5t64.5 -54t41.5 -73.5t30.5 -79.5t26.5 -73t33.5 -54t48 -20.5q117 0 146 377l149 -18q-7 -82 -17.5 -147t-32 -132.5t-52.5 -112.5t-80.5 -73.5t-112.5 -28.5q-61 0 -106 27.5t-67.5 69t-42 90 t-32.5 90t-35.5 69t-54.5 27.5q-111 0 -145 -375z" />
<glyph unicode="&#xa1;" horiz-adv-x="501" d="M109 868q0 57 41.5 99.5t99.5 42.5t100.5 -42.5t42.5 -99.5q0 -58 -42.5 -100.5t-100.5 -42.5t-99.5 42t-41.5 101zM121 -377l37 946h186l39 -946h-262z" />
<glyph unicode="&#xa2;" horiz-adv-x="1017" d="M78 496q0 201 117.5 342t308.5 170v149h160v-147q194 -23 305 -172l-142 -131q-65 89 -163 110v-645q97 21 163 111l142 -131q-111 -149 -305 -172v-185h-160v187q-191 28 -308.5 169t-117.5 345zM301 496q0 -117 54.5 -202t148.5 -114v629q-94 -31 -148.5 -114 t-54.5 -199z" />
<glyph unicode="&#xa3;" horiz-adv-x="1097" d="M43 549v143h170q-38 49 -59 81.5t-40.5 86.5t-19.5 111q0 119 69 215.5t178.5 148t233.5 51.5q158 0 273 -60.5t176 -178.5l-190 -113q-27 67 -90 111.5t-142 44.5q-104 0 -176 -61.5t-72 -161.5q0 -35 6.5 -66t23 -62t27.5 -48.5t36 -52t34 -46.5h301v-143h-237 q6 -27 6 -60q0 -78 -39.5 -141t-103.5 -104q50 16 104 16q64 0 147 -37t136 -37q61 0 110 23.5t74 54.5l96 -190q-97 -101 -291 -101q-60 0 -114 14.5t-86.5 32t-77.5 32t-90 14.5q-91 0 -240 -80l-82 168q114 53 179 125t65 155q0 56 -27 115h-268z" />
<glyph unicode="&#xa4;" horiz-adv-x="1253" d="M51 1130l129 127l156 -157q125 80 291 80q163 0 288 -80l156 157l129 -129l-153 -153q88 -130 88 -293q0 -165 -88 -295l153 -149l-129 -127l-156 151q-122 -80 -288 -80q-164 0 -293 82l-152 -153l-129 127l152 151q-86 131 -86 293q0 163 88 293zM336 682 q0 -129 78.5 -218t212.5 -89q135 0 213 89t78 218q0 128 -78 215.5t-213 87.5q-134 0 -212.5 -88t-78.5 -215z" />
<glyph unicode="&#xa5;" horiz-adv-x="1304" d="M2 1366h274l377 -586l373 586h274l-438 -661h398v-138h-488v-188h488v-137h-488v-242h-240v242h-485v137h485v188h-485v138h393z" />
<glyph unicode="&#xa6;" horiz-adv-x="438" d="M145 -41v647h148v-647h-148zM145 760v647h148v-647h-148z" />
<glyph unicode="&#xa7;" horiz-adv-x="976" d="M57 -6l95 137q56 -60 142.5 -102.5t182.5 -42.5q93 0 149 37.5t56 105.5q0 39 -25.5 67t-67.5 43.5t-96 31t-110 28t-110 35.5t-96 52.5t-67.5 80t-25.5 117.5q0 98 63 164t152 94q-215 75 -215 256q0 123 107 205.5t282 82.5q246 0 383 -141l-88 -129q-51 56 -129 86.5 t-158 30.5q-87 0 -138.5 -36t-51.5 -97q0 -40 33 -66.5t85.5 -41.5t116.5 -28.5t128 -34t116.5 -51t85.5 -87t33 -134.5q0 -86 -45.5 -153.5t-132.5 -108.5q178 -74 178 -250q0 -145 -114 -228t-298 -83q-249 0 -420 160zM291 612q0 -26 8.5 -46.5t29 -36.5t38 -27t53 -22 t55.5 -16t62 -15q71 30 106 71t35 101q0 37 -16 65t-46.5 47t-61.5 30.5t-73 22.5q-105 -26 -147.5 -69t-42.5 -105z" />
<glyph unicode="&#xa8;" horiz-adv-x="583" d="M-43 1245q0 50 35 84.5t86 34.5q50 0 84.5 -35t34.5 -84q0 -51 -34.5 -86t-84.5 -35q-51 0 -86 35t-35 86zM385 1245q0 49 35.5 84t85.5 35t85.5 -35t35.5 -84q0 -51 -35.5 -86t-85.5 -35t-85.5 35t-35.5 86z" />
<glyph unicode="&#xa9;" horiz-adv-x="1593" d="M90 684q0 192 95 355t258 257.5t354 94.5q144 0 275 -56t225 -150.5t150 -225.5t56 -275q0 -143 -56 -274t-150 -226t-225 -151t-275 -56q-191 0 -354 95t-258 258t-95 354zM160 684q0 -129 50.5 -247t136 -203.5t203.5 -136t247 -50.5t247 50.5t203.5 136t136 203.5 t50.5 247t-50.5 247t-136 203.5t-203.5 136t-247 50.5t-247 -50.5t-203.5 -136t-136 -203.5t-50.5 -247zM379 686q0 186 123.5 309t302.5 123q185 0 301 -135l-59 -57q-40 54 -105 85t-137 31q-140 0 -240 -100t-100 -256q0 -154 100.5 -257t239.5 -103q73 0 138.5 32 t105.5 86l59 -57q-118 -137 -303 -137q-178 0 -302 125t-124 311z" />
<glyph unicode="&#xaa;" horiz-adv-x="782" d="M72 864q0 99 68 154t159 55q138 0 213 -82v94q0 56 -42 88.5t-108 32.5q-112 0 -194 -88l-64 103q115 106 283 106q58 0 106.5 -12.5t89.5 -40t64 -76.5t23 -115v-415h-158v67q-77 -84 -213 -84q-91 0 -159 56.5t-68 156.5zM229 864q0 -52 37.5 -82t95.5 -30 q45 0 86 17.5t64 49.5v90q-23 30 -64 48t-86 18q-57 0 -95 -30.5t-38 -80.5z" />
<glyph unicode="&#xab;" horiz-adv-x="1001" d="M61 498l328 362h203l-328 -362l328 -369h-203zM410 498l327 362h203l-328 -362l328 -369h-203z" />
<glyph unicode="&#xac;" horiz-adv-x="1044" d="M59 809v139h910v-528h-144v389h-766z" />
<glyph unicode="&#xad;" horiz-adv-x="614" d="M61 403v185h492v-185h-492z" />
<glyph unicode="&#xae;" horiz-adv-x="1011" d="M72 952q0 181 127 307.5t307 126.5q119 0 219 -57.5t157.5 -157.5t57.5 -219q0 -180 -126.5 -307t-307.5 -127q-180 0 -307 127t-127 307zM133 952q0 -154 109 -263t264 -109q154 0 262.5 109t108.5 263q0 155 -108.5 263t-262.5 108q-155 0 -264 -108t-109 -263z M340 702v498h203q65 0 112 -42t47 -109q0 -72 -46 -110t-81 -38l134 -199h-84l-129 197h-88v-197h-68zM408 961h135q34 0 62 25.5t28 62.5q0 39 -28 65.5t-62 26.5h-135v-180z" />
<glyph unicode="&#xaf;" horiz-adv-x="743" d="M0 1159v127h743v-127h-743z" />
<glyph unicode="&#xb0;" horiz-adv-x="618" d="M43 1120q0 109 77.5 187.5t186.5 78.5q110 0 188 -78.5t78 -187.5q0 -110 -78 -187t-188 -77q-109 0 -186.5 77t-77.5 187zM168 1120q0 -59 40.5 -100t98.5 -41q59 0 101.5 41.5t42.5 99.5t-42.5 101t-101.5 43q-58 0 -98.5 -42.5t-40.5 -101.5z" />
<glyph unicode="&#xb1;" horiz-adv-x="1028" d="M59 0v137h910v-137h-910zM59 666v137h379v411h152v-411h379v-137h-379v-426h-152v426h-379z" />
<glyph unicode="&#xb2;" horiz-adv-x="804" d="M84 1561q56 66 141 99.5t176 33.5q136 0 225 -65.5t89 -184.5q0 -105 -91.5 -208.5t-285.5 -240.5h383v-133h-623v121q263 186 358 278t95 171q0 63 -44 96t-110 33q-69 0 -130.5 -31t-94.5 -74z" />
<glyph unicode="&#xb3;" horiz-adv-x="804" d="M74 979l84 106q43 -50 106.5 -77t128.5 -27q79 0 123.5 31.5t44.5 85.5q0 116 -194 116q-76 0 -88 -2v134q24 -3 86 -3q182 0 182 109q0 52 -46 80.5t-118 28.5q-127 0 -219 -95l-80 99q119 129 315 129q144 0 228 -60.5t84 -160.5q0 -77 -54.5 -127t-128.5 -62 q72 -5 134.5 -57.5t62.5 -139.5q0 -107 -89 -173t-237 -66q-110 0 -194 36t-131 95z" />
<glyph unicode="&#xb4;" horiz-adv-x="491" d="M0 1139l287 295h205l-338 -295h-154z" />
<glyph unicode="&#xb5;" horiz-adv-x="1189" d="M139 -377v1366h215v-622q0 -203 201 -203q75 0 143 38t109 93v694h215v-721q0 -47 23.5 -74.5t64.5 -27.5q19 0 39 4l14 -182q-44 -13 -102 -13q-199 0 -244 177q-50 -78 -127.5 -127.5t-165.5 -49.5q-123 0 -170 74v-426h-215z" />
<glyph unicode="&#xb6;" horiz-adv-x="919" d="M55 1014q0 146 103.5 249t249.5 103h395v-1571h-113v1458h-170v-1458h-112v867q-146 0 -249.5 103t-103.5 249z" />
<glyph unicode="&#xb7;" horiz-adv-x="501" d="M106 500q0 58 42.5 100.5t101.5 42.5q58 0 100.5 -42.5t42.5 -100.5q0 -57 -42.5 -99.5t-100.5 -42.5t-101 42.5t-43 99.5z" />
<glyph unicode="&#xb8;" horiz-adv-x="438" d="M0 -334l45 94q73 -59 166 -59q47 0 81 19.5t34 54.5q0 61 -68 61q-42 0 -70 -31l-84 48l64 170h113l-54 -132q33 23 74 23q59 0 98 -39.5t39 -101.5q0 -76 -64 -123t-157 -47q-67 0 -125.5 18t-91.5 45z" />
<glyph unicode="&#xb9;" horiz-adv-x="540" d="M20 1427l254 254h144v-819h-166v606l-137 -141z" />
<glyph unicode="&#xba;" horiz-adv-x="829" d="M70 989q0 142 95 240t249 98q157 0 251.5 -97.5t94.5 -240.5t-94.5 -240.5t-251.5 -97.5q-154 0 -249 98t-95 240zM233 989q0 -94 48 -151.5t133 -57.5t133.5 57.5t48.5 151.5q0 92 -48.5 148.5t-133.5 56.5t-133 -56.5t-48 -148.5z" />
<glyph unicode="&#xbb;" horiz-adv-x="1001" d="M61 129l328 369l-328 362h203l328 -362l-328 -369h-203zM410 129l327 369l-327 362h202l328 -362l-328 -369h-202z" />
<glyph unicode="&#xbc;" horiz-adv-x="1650" d="M20 1112l254 254h144v-819h-166v606l-137 -141zM256 0l872 1366h140l-875 -1366h-137zM911 188v115l336 516h230v-500h112v-131h-112v-188h-164v188h-402zM1075 319h238v359z" />
<glyph unicode="&#xbd;" horiz-adv-x="1722" d="M20 1112l254 254h144v-819h-166v606l-137 -141zM256 0l872 1366h140l-875 -1366h-137zM999 698q56 66 141.5 99.5t176.5 33.5q136 0 224.5 -65t88.5 -184q0 -105 -91.5 -208.5t-285.5 -240.5h383v-133h-622v121q263 186 357.5 277.5t94.5 170.5q0 63 -43.5 96t-109.5 33 q-70 0 -131.5 -30.5t-94.5 -73.5z" />
<glyph unicode="&#xbe;" horiz-adv-x="1847" d="M74 664l84 106q43 -50 106.5 -77t128.5 -27q79 0 123.5 31t44.5 85q0 117 -194 117q-76 0 -88 -2v133q16 -2 86 -2q182 0 182 109q0 52 -46 80t-118 28q-128 0 -219 -94l-80 98q119 129 315 129q144 0 228 -60.5t84 -160.5q0 -77 -54.5 -126.5t-128.5 -61.5 q72 -5 134.5 -57.5t62.5 -139.5q0 -107 -89 -173.5t-237 -66.5q-110 0 -194 36.5t-131 95.5zM453 0l872 1366h139l-874 -1366h-137zM1110 188v115l336 516h229v-500h113v-131h-113v-188h-164v188h-401zM1274 319h237v359z" />
<glyph unicode="&#xbf;" horiz-adv-x="811" d="M49 -80q0 71 27 130t68 96.5t88.5 74t88.5 64.5t68 66t27 81q0 54 -45 92l180 60q74 -71 74 -174q0 -51 -18 -94.5t-47.5 -74.5t-64.5 -58.5t-70 -52t-64.5 -49.5t-47.5 -56t-18 -66q0 -64 49.5 -105.5t144.5 -41.5q169 0 285 143l137 -154q-79 -96 -194 -149t-252 -53 q-190 0 -303 90t-113 231zM334 866q0 59 42.5 101.5t100.5 42.5q59 0 101.5 -43t42.5 -101q0 -57 -43 -99t-101 -42t-100.5 42t-42.5 99z" />
<glyph unicode="&#xc0;" horiz-adv-x="1378" d="M2 0l537 1366h299l536 -1366h-272l-101 262h-626l-101 -262h-272zM324 1776h204l287 -295h-153zM442 473h492l-246 651z" />
<glyph unicode="&#xc1;" horiz-adv-x="1378" d="M2 0l537 1366h299l536 -1366h-272l-101 262h-626l-101 -262h-272zM442 473h492l-246 651zM565 1481l287 295h205l-338 -295h-154z" />
<glyph unicode="&#xc2;" horiz-adv-x="1378" d="M2 0l537 1366h299l536 -1366h-272l-101 262h-626l-101 -262h-272zM399 1481l191 295h196l197 -295h-137l-158 196l-153 -196h-136zM442 473h492l-246 651z" />
<glyph unicode="&#xc3;" horiz-adv-x="1378" d="M2 0l537 1366h299l536 -1366h-272l-101 262h-626l-101 -262h-272zM360 1489q0 128 55 201t156 73q39 0 70.5 -16.5t52 -39.5t38.5 -46.5t39 -40t44 -16.5q37 0 60.5 37t23.5 110h119q0 -128 -55 -201t-156 -73q-40 0 -71.5 16.5t-52 39.5t-38 46.5t-38.5 40t-44 16.5 q-38 0 -62 -37t-24 -110h-117zM442 473h492l-246 651z" />
<glyph unicode="&#xc4;" horiz-adv-x="1378" d="M2 0l537 1366h299l536 -1366h-272l-101 262h-626l-101 -262h-272zM354 1587q0 50 35 84.5t86 34.5q49 0 84 -35t35 -84q0 -51 -34.5 -86t-84.5 -35q-51 0 -86 35t-35 86zM442 473h492l-246 651zM782 1587q0 49 35.5 84t85.5 35t85.5 -35t35.5 -84q0 -51 -35.5 -86 t-85.5 -35t-85.5 35t-35.5 86z" />
<glyph unicode="&#xc5;" horiz-adv-x="1378" d="M2 0l537 1366h299l536 -1366h-272l-101 262h-626l-101 -262h-272zM442 473h492l-246 651zM481 1620q0 86 61.5 148.5t147.5 62.5t146.5 -62t60.5 -149q0 -86 -60.5 -147.5t-146.5 -61.5t-147.5 61.5t-61.5 147.5zM584 1620q0 -43 31.5 -75t74.5 -32q44 0 74.5 32t30.5 75 q0 44 -30.5 75t-74.5 31q-43 0 -74.5 -31t-31.5 -75z" />
<glyph unicode="&#xc6;" horiz-adv-x="1964" d="M-4 0l840 1366h1032v-211h-697v-354h682v-211h-682v-379h697v-211h-936v262h-506l-158 -262h-272zM541 473h391v651z" />
<glyph unicode="&#xc7;" horiz-adv-x="1396" d="M84 682q0 154 55.5 287t151.5 224.5t228 143.5t282 52q357 0 549 -308l-205 -104q-51 88 -144 143.5t-200 55.5q-203 0 -337 -139.5t-134 -354.5t134 -354.5t337 -139.5q108 0 200.5 55t143.5 144l205 -104q-187 -295 -521 -308l-30 -75q31 22 73 22q59 0 98.5 -39.5 t39.5 -101.5q0 -76 -64.5 -123t-157.5 -47q-67 0 -125.5 18t-91.5 45l45 95q75 -60 166 -60q47 0 81 19.5t34 54.5q0 61 -68 61q-42 0 -69 -30l-84 47l43 119q-135 13 -252 70t-201.5 147t-133 215.5t-48.5 269.5z" />
<glyph unicode="&#xc8;" horiz-adv-x="1181" d="M145 0v1366h936v-211h-696v-354h682v-211h-682v-379h696v-211h-936zM246 1776h205l286 -295h-153z" />
<glyph unicode="&#xc9;" horiz-adv-x="1181" d="M145 0v1366h936v-211h-696v-354h682v-211h-682v-379h696v-211h-936zM487 1481l287 295h205l-338 -295h-154z" />
<glyph unicode="&#xca;" horiz-adv-x="1181" d="M145 0v1366h936v-211h-696v-354h682v-211h-682v-379h696v-211h-936zM322 1481l190 295h197l196 -295h-137l-158 196l-153 -196h-135z" />
<glyph unicode="&#xcb;" horiz-adv-x="1181" d="M145 0v1366h936v-211h-696v-354h682v-211h-682v-379h696v-211h-936zM279 1587q0 50 34.5 84.5t85.5 34.5q49 0 84 -35t35 -84q0 -51 -34.5 -86t-84.5 -35q-51 0 -85.5 35t-34.5 86zM707 1587q0 49 35 84t85 35t85.5 -35t35.5 -84q0 -51 -35.5 -86t-85.5 -35t-85 35 t-35 86z" />
<glyph unicode="&#xcc;" horiz-adv-x="530" d="M-102 1776h204l287 -295h-153zM145 0v1366h240v-1366h-240z" />
<glyph unicode="&#xcd;" horiz-adv-x="530" d="M143 1481l287 295h205l-338 -295h-154zM145 0v1366h240v-1366h-240z" />
<glyph unicode="&#xce;" horiz-adv-x="530" d="M-25 1481l191 295h196l197 -295h-137l-158 196l-153 -196h-136zM145 0v1366h240v-1366h-240z" />
<glyph unicode="&#xcf;" horiz-adv-x="530" d="M-68 1587q0 50 35 84.5t86 34.5q49 0 84 -35t35 -84q0 -51 -34.5 -86t-84.5 -35q-51 0 -86 35t-35 86zM145 0v1366h240v-1366h-240zM360 1587q0 49 35.5 84t85.5 35t85.5 -35t35.5 -84q0 -51 -35.5 -86t-85.5 -35t-85.5 35t-35.5 86z" />
<glyph unicode="&#xd0;" horiz-adv-x="1507" d="M18 584v176h181v606h508q210 0 373 -87t252 -242.5t89 -354.5q0 -302 -198 -492t-516 -190h-508v584h-181zM438 211h269q144 0 252 64.5t162.5 170.5t54.5 236q0 206 -124 339.5t-345 133.5h-269v-395h324v-176h-324v-373z" />
<glyph unicode="&#xd1;" horiz-adv-x="1474" d="M145 0v1366h246l699 -948v948h239v-1366h-231l-713 975v-975h-240zM406 1489q0 128 54.5 201t155.5 73q39 0 70.5 -16.5t52 -39.5t38.5 -46.5t39 -40t44 -16.5q37 0 60.5 37t23.5 110h119q0 -128 -55 -201t-156 -73q-40 0 -71.5 16.5t-52 39.5t-38 46.5t-38.5 40 t-44 16.5q-38 0 -62 -37t-24 -110h-116z" />
<glyph unicode="&#xd2;" horiz-adv-x="1566" d="M84 682q0 202 88.5 363.5t248 252.5t361.5 91q151 0 281.5 -53.5t222 -147t143.5 -224.5t52 -282t-52 -282t-143.5 -224.5t-222 -147t-281.5 -53.5q-202 0 -361.5 91t-248 252.5t-88.5 363.5zM330 682q0 -214 124 -354t328 -140q203 0 328 140t125 354q0 215 -125 354.5 t-328 139.5q-204 0 -328 -139t-124 -355zM418 1776h205l286 -295h-153z" />
<glyph unicode="&#xd3;" horiz-adv-x="1566" d="M84 682q0 202 88.5 363.5t248 252.5t361.5 91q151 0 281.5 -53.5t222 -147t143.5 -224.5t52 -282t-52 -282t-143.5 -224.5t-222 -147t-281.5 -53.5q-202 0 -361.5 91t-248 252.5t-88.5 363.5zM330 682q0 -214 124 -354t328 -140q203 0 328 140t125 354q0 215 -125 354.5 t-328 139.5q-204 0 -328 -139t-124 -355zM659 1481l287 295h205l-338 -295h-154z" />
<glyph unicode="&#xd4;" horiz-adv-x="1566" d="M84 682q0 202 88.5 363.5t248 252.5t361.5 91q151 0 281.5 -53.5t222 -147t143.5 -224.5t52 -282t-52 -282t-143.5 -224.5t-222 -147t-281.5 -53.5q-202 0 -361.5 91t-248 252.5t-88.5 363.5zM330 682q0 -214 124 -354t328 -140q203 0 328 140t125 354q0 215 -125 354.5 t-328 139.5q-204 0 -328 -139t-124 -355zM496 1481l190 295h197l196 -295h-137l-158 196l-153 -196h-135z" />
<glyph unicode="&#xd5;" horiz-adv-x="1566" d="M84 682q0 202 88.5 363.5t248 252.5t361.5 91q151 0 281.5 -53.5t222 -147t143.5 -224.5t52 -282t-52 -282t-143.5 -224.5t-222 -147t-281.5 -53.5q-202 0 -361.5 91t-248 252.5t-88.5 363.5zM330 682q0 -214 124 -354t328 -140q203 0 328 140t125 354q0 215 -125 354.5 t-328 139.5q-204 0 -328 -139t-124 -355zM455 1489q0 128 55 201t156 73q39 0 70.5 -16.5t52 -39.5t38 -46.5t38.5 -40t44 -16.5q37 0 60.5 37t23.5 110h119q0 -128 -55 -201t-156 -73q-40 0 -71.5 16.5t-52 39.5t-38 46.5t-38.5 40t-44 16.5q-38 0 -62 -37t-24 -110h-116z " />
<glyph unicode="&#xd6;" horiz-adv-x="1566" d="M84 682q0 202 88.5 363.5t248 252.5t361.5 91q151 0 281.5 -53.5t222 -147t143.5 -224.5t52 -282t-52 -282t-143.5 -224.5t-222 -147t-281.5 -53.5q-202 0 -361.5 91t-248 252.5t-88.5 363.5zM330 682q0 -214 124 -354t328 -140q203 0 328 140t125 354q0 215 -125 354.5 t-328 139.5q-204 0 -328 -139t-124 -355zM449 1587q0 50 34.5 84.5t85.5 34.5q49 0 84 -35t35 -84q0 -51 -34.5 -86t-84.5 -35q-51 0 -85.5 35t-34.5 86zM877 1587q0 49 35 84t85 35t85.5 -35t35.5 -84q0 -51 -35.5 -86t-85.5 -35t-85 35t-35 86z" />
<glyph unicode="&#xd7;" horiz-adv-x="1028" d="M121 387l295 297l-295 295l98 98l295 -297l295 297l98 -98l-295 -295l295 -297l-98 -96l-295 295l-295 -295z" />
<glyph unicode="&#xd8;" horiz-adv-x="1566" d="M84 682q0 202 88.5 363.5t248 252.5t361.5 91q190 0 348 -84l46 61h178l-105 -145q109 -97 170.5 -236.5t61.5 -302.5q0 -151 -52 -282t-143.5 -224.5t-222 -147t-281.5 -53.5q-204 0 -366 95l-51 -70h-179l113 156q-103 97 -159 232t-56 294zM330 682q0 -203 106 -336 l563 776q-97 54 -217 54q-204 0 -328 -139t-124 -355zM547 250q105 -62 235 -62q203 0 328 140t125 354q0 213 -123 352z" />
<glyph unicode="&#xd9;" horiz-adv-x="1472" d="M145 539v827h242v-819q0 -166 90.5 -262.5t259.5 -96.5q167 0 257.5 96.5t90.5 262.5v819h242v-825q0 -262 -150.5 -414t-439.5 -152q-290 0 -441 152t-151 412zM371 1776h204l287 -295h-153z" />
<glyph unicode="&#xda;" horiz-adv-x="1472" d="M145 539v827h242v-819q0 -166 90.5 -262.5t259.5 -96.5q167 0 257.5 96.5t90.5 262.5v819h242v-825q0 -262 -150.5 -414t-439.5 -152q-290 0 -441 152t-151 412zM612 1481l287 295h205l-338 -295h-154z" />
<glyph unicode="&#xdb;" horiz-adv-x="1472" d="M145 539v827h242v-819q0 -166 90.5 -262.5t259.5 -96.5q167 0 257.5 96.5t90.5 262.5v819h242v-825q0 -262 -150.5 -414t-439.5 -152q-290 0 -441 152t-151 412zM449 1481l190 295h197l196 -295h-137l-158 196l-153 -196h-135z" />
<glyph unicode="&#xdc;" horiz-adv-x="1472" d="M145 539v827h242v-819q0 -166 90.5 -262.5t259.5 -96.5q167 0 257.5 96.5t90.5 262.5v819h242v-825q0 -262 -150.5 -414t-439.5 -152q-290 0 -441 152t-151 412zM406 1587q0 50 34.5 84.5t85.5 34.5q50 0 84.5 -35t34.5 -84q0 -51 -34.5 -86t-84.5 -35q-51 0 -85.5 35 t-34.5 86zM834 1587q0 49 35 84t85 35t85.5 -35t35.5 -84q0 -51 -35.5 -86t-85.5 -35t-85 35t-35 86z" />
<glyph unicode="&#xdd;" horiz-adv-x="1304" d="M2 1366h274l377 -586l373 586h274l-528 -799v-567h-240v567zM526 1481l287 295h205l-338 -295h-154z" />
<glyph unicode="&#xde;" horiz-adv-x="1245" d="M145 0v1366h240v-231h360q139 0 242 -59.5t154 -156t51 -214.5q0 -117 -51.5 -212t-154.5 -153.5t-241 -58.5h-360v-281h-240zM385 492h328q103 0 168 59t65 156q0 96 -65.5 156.5t-167.5 60.5h-328v-432z" />
<glyph unicode="&#xdf;" horiz-adv-x="1275" d="M139 0v993q0 167 119 280t317 113q104 0 193 -33t145 -98t56 -149q0 -63 -29.5 -113t-71.5 -81t-83.5 -59t-71 -61t-29.5 -71q0 -35 30.5 -58t80 -36t108.5 -25.5t118.5 -34t109 -53t80 -89.5t30.5 -138q0 -135 -107 -223.5t-292 -88.5q-136 0 -224 41t-169 119l96 150 q45 -59 125.5 -98.5t171.5 -39.5q92 0 142 39t50 95q0 39 -30.5 65t-80 41.5t-108.5 29.5t-118.5 34.5t-109 50.5t-80 84t-30.5 129q0 60 28 109.5t68.5 81t80.5 58.5t68 55.5t28 57.5q0 55 -54.5 87t-124.5 32q-93 0 -155 -55t-62 -148v-993h-215z" />
<glyph unicode="&#xe0;" horiz-adv-x="1097" d="M80 303q0 82 30.5 145.5t81 101t110 56.5t122.5 19q210 0 319 -127v147q0 85 -63.5 134.5t-167.5 49.5q-166 0 -293 -124l-88 149q169 160 416 160q86 0 157.5 -19.5t129.5 -60t91 -112t33 -167.5v-655h-215v106q-56 -63 -138.5 -97t-180.5 -34q-62 0 -122 21 t-110.5 60.5t-81 103.5t-30.5 143zM180 1434h205l287 -295h-154zM297 299q0 -79 59.5 -127.5t151.5 -48.5q73 0 136 26.5t99 75.5v150q-36 49 -99 75.5t-136 26.5q-92 0 -151.5 -48.5t-59.5 -129.5z" />
<glyph unicode="&#xe1;" horiz-adv-x="1097" d="M80 303q0 82 30.5 145.5t81 101t110 56.5t122.5 19q210 0 319 -127v147q0 85 -63.5 134.5t-167.5 49.5q-166 0 -293 -124l-88 149q169 160 416 160q86 0 157.5 -19.5t129.5 -60t91 -112t33 -167.5v-655h-215v106q-56 -63 -138.5 -97t-180.5 -34q-62 0 -122 21 t-110.5 60.5t-81 103.5t-30.5 143zM297 299q0 -79 59.5 -127.5t151.5 -48.5q73 0 136 26.5t99 75.5v150q-36 49 -99 75.5t-136 26.5q-92 0 -151.5 -48.5t-59.5 -129.5zM422 1139l287 295h204l-338 -295h-153z" />
<glyph unicode="&#xe2;" horiz-adv-x="1097" d="M80 303q0 82 30.5 145.5t81 101t110 56.5t122.5 19q210 0 319 -127v147q0 85 -63.5 134.5t-167.5 49.5q-166 0 -293 -124l-88 149q169 160 416 160q86 0 157.5 -19.5t129.5 -60t91 -112t33 -167.5v-655h-215v106q-56 -63 -138.5 -97t-180.5 -34q-62 0 -122 21 t-110.5 60.5t-81 103.5t-30.5 143zM256 1139l190 295h197l197 -295h-138l-157 196l-154 -196h-135zM297 299q0 -79 59.5 -127.5t151.5 -48.5q73 0 136 26.5t99 75.5v150q-36 49 -99 75.5t-136 26.5q-92 0 -151.5 -48.5t-59.5 -129.5z" />
<glyph unicode="&#xe3;" horiz-adv-x="1097" d="M80 303q0 82 30.5 145.5t81 101t110 56.5t122.5 19q210 0 319 -127v147q0 85 -63.5 134.5t-167.5 49.5q-166 0 -293 -124l-88 149q169 160 416 160q86 0 157.5 -19.5t129.5 -60t91 -112t33 -167.5v-655h-215v106q-56 -63 -138.5 -97t-180.5 -34q-62 0 -122 21 t-110.5 60.5t-81 103.5t-30.5 143zM219 1147q0 128 55 201t156 73q39 0 70.5 -16.5t52 -39.5t38.5 -46.5t39 -40t44 -16.5q37 0 60.5 37t23.5 110h119q0 -128 -55 -201t-156 -73q-40 0 -71.5 16.5t-52 39.5t-38 46.5t-38.5 40t-44 16.5q-38 0 -62 -37t-24 -110h-117z M297 299q0 -79 59.5 -127.5t151.5 -48.5q73 0 136 26.5t99 75.5v150q-36 49 -99 75.5t-136 26.5q-92 0 -151.5 -48.5t-59.5 -129.5z" />
<glyph unicode="&#xe4;" horiz-adv-x="1097" d="M80 303q0 82 30.5 145.5t81 101t110 56.5t122.5 19q210 0 319 -127v147q0 85 -63.5 134.5t-167.5 49.5q-166 0 -293 -124l-88 149q169 160 416 160q86 0 157.5 -19.5t129.5 -60t91 -112t33 -167.5v-655h-215v106q-56 -63 -138.5 -97t-180.5 -34q-62 0 -122 21 t-110.5 60.5t-81 103.5t-30.5 143zM213 1245q0 50 35 84.5t86 34.5q50 0 84.5 -35t34.5 -84q0 -51 -34.5 -86t-84.5 -35q-51 0 -86 35t-35 86zM297 299q0 -79 59.5 -127.5t151.5 -48.5q73 0 136 26.5t99 75.5v150q-36 49 -99 75.5t-136 26.5q-92 0 -151.5 -48.5 t-59.5 -129.5zM641 1245q0 49 35.5 84t85.5 35t85.5 -35t35.5 -84q0 -51 -35.5 -86t-85.5 -35t-85.5 35t-35.5 86z" />
<glyph unicode="&#xe5;" horiz-adv-x="1097" d="M80 303q0 82 30.5 145.5t81 101t110 56.5t122.5 19q210 0 319 -127v147q0 85 -63.5 134.5t-167.5 49.5q-166 0 -293 -124l-88 149q169 160 416 160q86 0 157.5 -19.5t129.5 -60t91 -112t33 -167.5v-655h-215v106q-56 -63 -138.5 -97t-180.5 -34q-62 0 -122 21 t-110.5 60.5t-81 103.5t-30.5 143zM297 299q0 -79 59.5 -127.5t151.5 -48.5q73 0 136 26.5t99 75.5v150q-36 49 -99 75.5t-136 26.5q-92 0 -151.5 -48.5t-59.5 -129.5zM340 1307q0 86 61.5 148.5t147.5 62.5t146.5 -62t60.5 -149q0 -86 -60.5 -147.5t-146.5 -61.5 t-147.5 61.5t-61.5 147.5zM442 1307q0 -43 32 -75t75 -32q44 0 74 32t30 75q0 44 -30 75t-74 31q-43 0 -75 -31t-32 -75z" />
<glyph unicode="&#xe6;" horiz-adv-x="1798" d="M80 301q0 154 103.5 239t258.5 85q106 0 197.5 -31.5t151.5 -91.5v145q0 84 -70 133t-182 49q-184 0 -320 -124l-88 149q172 160 426 160q135 0 227 -49.5t129 -141.5q40 58 84 97t116.5 66.5t162.5 27.5q204 0 326 -151t122 -388v-51h-718q13 -117 89 -192.5t201 -75.5 q70 0 142 28.5t118 79.5l99 -145q-71 -68 -171.5 -106t-197.5 -38q-270 0 -389 201q-60 -90 -172 -145.5t-244 -55.5q-79 0 -150 20.5t-127.5 60t-90 103t-33.5 142.5zM297 315q0 -77 63.5 -118t167.5 -41t183.5 64.5t79.5 137.5v15q-42 49 -113 76.5t-150 27.5 q-103 0 -167 -42.5t-64 -119.5zM1004 575h512q-2 46 -17.5 90.5t-45 84.5t-79.5 64t-114 24q-60 0 -109 -24t-79.5 -62.5t-47.5 -84t-20 -92.5z" />
<glyph unicode="&#xe7;" horiz-adv-x="1017" d="M78 496q0 225 143.5 371.5t368.5 146.5q248 0 379 -176l-142 -131q-82 116 -227 116q-134 0 -216.5 -91t-82.5 -236q0 -146 82.5 -238t216.5 -92q142 0 227 117l142 -131q-117 -159 -332 -175l-33 -81q31 22 74 22q59 0 98 -39.5t39 -101.5q0 -76 -64 -123t-157 -47 q-67 0 -125.5 18t-91.5 45l45 94q73 -59 166 -59q47 0 80.5 19.5t33.5 54.5q0 61 -67 61q-43 0 -70 -30l-84 47l45 123q-200 20 -324 163t-124 353z" />
<glyph unicode="&#xe8;" horiz-adv-x="1140" d="M78 496q0 142 63.5 260.5t179.5 188t259 69.5q220 0 353.5 -151.5t133.5 -387.5v-51h-764q13 -117 96.5 -194.5t218.5 -77.5q75 0 152.5 28.5t128.5 79.5l98 -141q-73 -70 -177 -107t-224 -37q-225 0 -371.5 144.5t-146.5 376.5zM215 1434h205l287 -295h-154zM301 575 h557q-2 46 -18.5 90.5t-48.5 84.5t-86.5 64t-124.5 24q-66 0 -119.5 -23.5t-86 -63t-51 -84t-22.5 -92.5z" />
<glyph unicode="&#xe9;" horiz-adv-x="1140" d="M78 496q0 142 63.5 260.5t179.5 188t259 69.5q220 0 353.5 -151.5t133.5 -387.5v-51h-764q13 -117 96.5 -194.5t218.5 -77.5q75 0 152.5 28.5t128.5 79.5l98 -141q-73 -70 -177 -107t-224 -37q-225 0 -371.5 144.5t-146.5 376.5zM301 575h557q-2 46 -18.5 90.5 t-48.5 84.5t-86.5 64t-124.5 24q-66 0 -119.5 -23.5t-86 -63t-51 -84t-22.5 -92.5zM457 1139l286 295h205l-338 -295h-153z" />
<glyph unicode="&#xea;" horiz-adv-x="1140" d="M78 496q0 142 63.5 260.5t179.5 188t259 69.5q220 0 353.5 -151.5t133.5 -387.5v-51h-764q13 -117 96.5 -194.5t218.5 -77.5q75 0 152.5 28.5t128.5 79.5l98 -141q-73 -70 -177 -107t-224 -37q-225 0 -371.5 144.5t-146.5 376.5zM291 1139l190 295h197l196 -295h-137 l-157 196l-154 -196h-135zM301 575h557q-2 46 -18.5 90.5t-48.5 84.5t-86.5 64t-124.5 24q-66 0 -119.5 -23.5t-86 -63t-51 -84t-22.5 -92.5z" />
<glyph unicode="&#xeb;" horiz-adv-x="1140" d="M78 496q0 142 63.5 260.5t179.5 188t259 69.5q220 0 353.5 -151.5t133.5 -387.5v-51h-764q13 -117 96.5 -194.5t218.5 -77.5q75 0 152.5 28.5t128.5 79.5l98 -141q-73 -70 -177 -107t-224 -37q-225 0 -371.5 144.5t-146.5 376.5zM248 1245q0 50 35 84.5t86 34.5 q49 0 83.5 -34.5t34.5 -84.5q0 -51 -34 -86t-84 -35q-51 0 -86 35t-35 86zM301 575h557q-2 46 -18.5 90.5t-48.5 84.5t-86.5 64t-124.5 24q-66 0 -119.5 -23.5t-86 -63t-51 -84t-22.5 -92.5zM676 1245q0 49 35.5 84t85.5 35t85.5 -35t35.5 -84q0 -51 -35.5 -86t-85.5 -35 t-85.5 35t-35.5 86z" />
<glyph unicode="&#xec;" d="M-121 1434h205l287 -295h-154zM139 0v989h215v-989h-215z" />
<glyph unicode="&#xed;" d="M123 1139l287 295h204l-338 -295h-153zM139 0v989h215v-989h-215z" />
<glyph unicode="&#xee;" d="M-45 1139l190 295h197l197 -295h-138l-157 196l-154 -196h-135zM139 0v989h215v-989h-215z" />
<glyph unicode="&#xef;" d="M-88 1245q0 50 35 84.5t86 34.5q49 0 84 -35t35 -84q0 -51 -34.5 -86t-84.5 -35q-51 0 -86 35t-35 86zM139 0v989h215v-989h-215zM340 1245q0 49 35.5 84t85.5 35t85.5 -35t35.5 -84q0 -51 -35.5 -86t-85.5 -35t-85.5 35t-35.5 86z" />
<glyph unicode="&#xf0;" horiz-adv-x="1173" d="M78 467q0 213 126 352t318 139q203 0 326 -186q-81 166 -324 344l-297 -131l-45 107l230 100q-25 17 -73 46t-65 40l117 174q124 -74 242 -162l215 94l45 -104l-160 -72q363 -320 363 -696q0 -239 -138 -388t-372 -149q-227 0 -367.5 139t-140.5 353zM301 467 q0 -127 76.5 -214t208.5 -87q133 0 209.5 87t76.5 214t-76.5 214t-209.5 87q-132 0 -208.5 -87t-76.5 -214z" />
<glyph unicode="&#xf1;" horiz-adv-x="1161" d="M139 0v989h215v-135q56 66 148 113t200 47q158 0 239 -82t81 -236v-696h-215v618q0 110 -51.5 157.5t-147.5 47.5q-78 0 -146 -38.5t-108 -94.5v-690h-215zM254 1147q0 128 55 201t156 73q39 0 70.5 -16.5t52 -39.5t38.5 -46.5t39 -40t44 -16.5q37 0 60.5 37t23.5 110 h118q0 -128 -55 -201t-156 -73q-40 0 -71.5 16.5t-51.5 39.5t-37.5 46.5t-38.5 40t-44 16.5q-38 0 -62 -37t-24 -110h-117z" />
<glyph unicode="&#xf2;" horiz-adv-x="1173" d="M78 496q0 106 36 200.5t100.5 165t160.5 111.5t211 41q154 0 271.5 -71t178 -187.5t60.5 -259.5q0 -144 -60.5 -261.5t-178 -188.5t-271.5 -71q-115 0 -211 41.5t-160.5 112t-100.5 165.5t-36 202zM221 1434h205l287 -295h-154zM301 496q0 -138 77 -234t208 -96 q133 0 209.5 95.5t76.5 234.5q0 137 -76.5 232t-209.5 95q-131 0 -208 -95t-77 -232z" />
<glyph unicode="&#xf3;" horiz-adv-x="1173" d="M78 496q0 106 36 200.5t100.5 165t160.5 111.5t211 41q154 0 271.5 -71t178 -187.5t60.5 -259.5q0 -144 -60.5 -261.5t-178 -188.5t-271.5 -71q-115 0 -211 41.5t-160.5 112t-100.5 165.5t-36 202zM301 496q0 -138 77 -234t208 -96q133 0 209.5 95.5t76.5 234.5 q0 137 -76.5 232t-209.5 95q-131 0 -208 -95t-77 -232zM463 1139l287 295h204l-338 -295h-153z" />
<glyph unicode="&#xf4;" horiz-adv-x="1173" d="M78 496q0 106 36 200.5t100.5 165t160.5 111.5t211 41q154 0 271.5 -71t178 -187.5t60.5 -259.5q0 -144 -60.5 -261.5t-178 -188.5t-271.5 -71q-115 0 -211 41.5t-160.5 112t-100.5 165.5t-36 202zM295 1139l190 295h197l197 -295h-138l-157 196l-154 -196h-135zM301 496 q0 -138 77 -234t208 -96q133 0 209.5 95.5t76.5 234.5q0 137 -76.5 232t-209.5 95q-131 0 -208 -95t-77 -232z" />
<glyph unicode="&#xf5;" horiz-adv-x="1173" d="M78 496q0 106 36 200.5t100.5 165t160.5 111.5t211 41q154 0 271.5 -71t178 -187.5t60.5 -259.5q0 -144 -60.5 -261.5t-178 -188.5t-271.5 -71q-115 0 -211 41.5t-160.5 112t-100.5 165.5t-36 202zM258 1147q0 128 55 201t156 73q39 0 70.5 -16.5t52 -39.5t38.5 -46.5 t39 -40t44 -16.5q37 0 60.5 37t23.5 110h118q0 -128 -54.5 -201t-155.5 -73q-40 0 -71.5 16.5t-52 39.5t-38 46.5t-38.5 40t-44 16.5q-38 0 -62 -37t-24 -110h-117zM301 496q0 -138 77 -234t208 -96q133 0 209.5 95.5t76.5 234.5q0 137 -76.5 232t-209.5 95q-131 0 -208 -95 t-77 -232z" />
<glyph unicode="&#xf6;" horiz-adv-x="1173" d="M78 496q0 106 36 200.5t100.5 165t160.5 111.5t211 41q154 0 271.5 -71t178 -187.5t60.5 -259.5q0 -144 -60.5 -261.5t-178 -188.5t-271.5 -71q-115 0 -211 41.5t-160.5 112t-100.5 165.5t-36 202zM252 1245q0 50 35 84.5t86 34.5q49 0 84 -35t35 -84q0 -51 -34.5 -86 t-84.5 -35q-51 0 -86 35t-35 86zM301 496q0 -138 77 -234t208 -96q133 0 209.5 95.5t76.5 234.5q0 137 -76.5 232t-209.5 95q-131 0 -208 -95t-77 -232zM680 1245q0 49 35.5 84t85.5 35t85.5 -35t35.5 -84q0 -51 -35.5 -86t-85.5 -35t-85.5 35t-35.5 86z" />
<glyph unicode="&#xf7;" horiz-adv-x="1046" d="M59 621v139h928v-139h-928zM412 309q0 46 32.5 79.5t77.5 33.5q46 0 79.5 -33.5t33.5 -79.5q0 -45 -33.5 -77.5t-79.5 -32.5t-78 32t-32 78zM412 1065q0 46 32 78.5t78 32.5t79.5 -32.5t33.5 -78.5t-33.5 -79.5t-79.5 -33.5q-45 0 -77.5 33.5t-32.5 79.5z" />
<glyph unicode="&#xf8;" horiz-adv-x="1173" d="M78 496q0 106 36 200.5t100.5 165t160.5 111.5t211 41q159 0 286 -80l46 55h141l-103 -125q140 -146 140 -368q0 -144 -60.5 -261.5t-178 -188.5t-271.5 -71q-171 0 -293 86l-51 -61h-140l109 131q-133 145 -133 365zM301 496q0 -113 49 -195l391 475q-70 47 -155 47 q-131 0 -208 -95t-77 -232zM422 219q72 -53 164 -53q133 0 209.5 95.5t76.5 234.5q0 118 -55 200z" />
<glyph unicode="&#xf9;" horiz-adv-x="1161" d="M139 289v700h215v-622q0 -110 51 -155.5t148 -45.5q77 0 145 37t109 92v694h215v-989h-215v131q-60 -67 -150.5 -111.5t-199.5 -44.5q-158 0 -238 80t-80 234zM213 1434h205l287 -295h-154z" />
<glyph unicode="&#xfa;" horiz-adv-x="1161" d="M139 289v700h215v-622q0 -110 51 -155.5t148 -45.5q77 0 145 37t109 92v694h215v-989h-215v131q-60 -67 -150.5 -111.5t-199.5 -44.5q-158 0 -238 80t-80 234zM455 1139l286 295h205l-338 -295h-153z" />
<glyph unicode="&#xfb;" horiz-adv-x="1161" d="M139 289v700h215v-622q0 -110 51 -155.5t148 -45.5q77 0 145 37t109 92v694h215v-989h-215v131q-60 -67 -150.5 -111.5t-199.5 -44.5q-158 0 -238 80t-80 234zM289 1139l190 295h197l196 -295h-137l-157 196l-154 -196h-135z" />
<glyph unicode="&#xfc;" horiz-adv-x="1161" d="M139 289v700h215v-622q0 -110 51 -155.5t148 -45.5q77 0 145 37t109 92v694h215v-989h-215v131q-60 -67 -150.5 -111.5t-199.5 -44.5q-158 0 -238 80t-80 234zM244 1245q0 50 35 84.5t86 34.5q49 0 83.5 -34.5t34.5 -84.5q0 -51 -34 -86t-84 -35q-51 0 -86 35t-35 86z M672 1245q0 49 35.5 84t85.5 35t85 -35t35 -84q0 -51 -35 -86t-85 -35t-85.5 35t-35.5 86z" />
<glyph unicode="&#xfd;" horiz-adv-x="1030" d="M-4 989h229l289 -741l289 741h231l-477 -1167q-49 -120 -133 -170.5t-207 -52.5q-67 0 -121 14l33 192q37 -16 82 -16q53 0 86.5 19t54.5 67l49 113zM389 1139l287 295h205l-338 -295h-154z" />
<glyph unicode="&#xfe;" horiz-adv-x="1183" d="M139 -377v1743h215v-512q56 75 139.5 117.5t178.5 42.5q196 0 317 -139t121 -379q0 -241 -121.5 -381t-316.5 -140q-94 0 -176 41.5t-142 120.5v-514h-215zM354 299q36 -55 108.5 -94t145.5 -39q126 0 202.5 92t76.5 238q0 144 -76.5 235.5t-202.5 91.5q-74 0 -146 -38.5 t-108 -94.5v-391z" />
<glyph unicode="&#xff;" horiz-adv-x="1030" d="M-4 989h229l289 -741l289 741h231l-477 -1167q-49 -120 -133 -170.5t-207 -52.5q-67 0 -121 14l33 192q37 -16 82 -16q53 0 86.5 19t54.5 67l49 113zM180 1245q0 50 35 84.5t86 34.5q49 0 84 -35t35 -84q0 -51 -34.5 -86t-84.5 -35q-51 0 -86 35t-35 86zM608 1245 q0 49 35.5 84t85.5 35t85.5 -35t35.5 -84q0 -51 -35.5 -86t-85.5 -35t-85.5 35t-35.5 86z" />
<glyph unicode="&#x131;" d="M139 0v989h215v-989h-215z" />
<glyph unicode="&#x152;" horiz-adv-x="2238" d="M84 682q0 203 85.5 363.5t240 250.5t350.5 90q132 0 253.5 -57t190.5 -162v199h936v-211h-696v-354h682v-211h-682v-379h696v-211h-936v197q-69 -106 -190.5 -164t-253.5 -58q-196 0 -350.5 91t-240 252t-85.5 364zM330 682q0 -216 125.5 -355t335.5 -139q141 0 250.5 72 t162.5 205v434q-53 134 -162 204.5t-251 70.5q-210 0 -335.5 -138t-125.5 -354z" />
<glyph unicode="&#x153;" horiz-adv-x="1933" d="M78 496q0 106 36 200.5t100.5 165t160.5 111.5t211 41q253 0 397 -248q24 44 55 82t78.5 78.5t114 64t143.5 23.5q146 0 257 -70t170 -192t59 -277v-51h-762q13 -118 96 -195t217 -77q76 0 153.5 28.5t129.5 79.5l98 -141q-74 -70 -178.5 -107t-222.5 -37 q-266 0 -410 246q-140 -246 -395 -246q-115 0 -211 41.5t-160.5 112t-100.5 165.5t-36 202zM301 496q0 -143 78.5 -237.5t206.5 -94.5q130 0 208 94.5t78 237.5q0 142 -77.5 234.5t-208.5 92.5q-128 0 -206.5 -93t-78.5 -234zM1096 575h557q-2 46 -19.5 90.5t-49.5 84.5 t-87 64t-125 24q-65 0 -118 -24t-85.5 -62.5t-51 -84t-21.5 -92.5z" />
<glyph unicode="&#x178;" horiz-adv-x="1304" d="M2 1366h274l377 -586l373 586h274l-528 -799v-567h-240v567zM319 1587q0 50 35 84.5t86 34.5q50 0 84.5 -35t34.5 -84q0 -51 -34.5 -86t-84.5 -35q-51 0 -86 35t-35 86zM748 1587q0 49 35 84t85 35t85.5 -35t35.5 -84q0 -51 -35.5 -86t-85.5 -35t-85 35t-35 86z" />
<glyph unicode="&#x192;" horiz-adv-x="909" d="M31 -330l184 832h-123v190h164l82 373q32 146 137.5 233.5t247.5 87.5q143 0 221 -81l-96 -175q-40 46 -98 46q-64 0 -112 -43t-65 -117l-73 -324h256v-190h-297l-185 -832h-243z" />
<glyph unicode="&#x2c6;" horiz-adv-x="583" d="M0 1139l190 295h197l197 -295h-138l-157 196l-154 -196h-135z" />
<glyph unicode="&#x2c7;" horiz-adv-x="583" d="M0 1434h135l160 -199l151 199h138l-191 -295h-196z" />
<glyph unicode="&#x2d8;" horiz-adv-x="718" d="M0 1274l98 82q97 -135 262 -135q81 0 148.5 35.5t112.5 99.5l98 -82q-62 -84 -156 -132t-203 -48q-107 0 -201.5 48t-158.5 132z" />
<glyph unicode="&#x2d9;" horiz-adv-x="301" d="M31 1243q0 49 35.5 85t85.5 36q49 0 83.5 -35.5t34.5 -85.5q0 -51 -34 -86t-84 -35t-85.5 35t-35.5 86z" />
<glyph unicode="&#x2da;" horiz-adv-x="415" d="M0 1307q0 86 61.5 148.5t147.5 62.5t146.5 -62t60.5 -149q0 -86 -60.5 -147.5t-146.5 -61.5t-147.5 61.5t-61.5 147.5zM102 1307q0 -43 32 -75t75 -32q44 0 74 32t30 75q0 44 -30 75t-74 31q-43 0 -75 -31t-32 -75z" />
<glyph unicode="&#x2db;" horiz-adv-x="382" d="M0 -199q0 77 47.5 143t132.5 111l82 -55q-149 -74 -149 -190q0 -47 23 -71t59 -24q69 0 96 78l92 -55q-59 -119 -188 -119q-84 0 -139.5 45.5t-55.5 136.5z" />
<glyph unicode="&#x2dc;" horiz-adv-x="657" d="M0 1147q0 128 55 201t156 73q39 0 70.5 -16.5t52 -39.5t38.5 -46.5t39 -40t44 -16.5q37 0 60.5 37t23.5 110h118q0 -128 -55 -201t-156 -73q-40 0 -71.5 16.5t-51.5 39.5t-37.5 46.5t-38.5 40t-44 16.5q-38 0 -62 -37t-24 -110h-117z" />
<glyph unicode="&#x2dd;" horiz-adv-x="663" d="M0 1139l184 295h181l-236 -295h-129zM299 1139l184 295h181l-236 -295h-129z" />
<glyph unicode="&#x3a9;" horiz-adv-x="1566" d="M84 733q0 193 89 342.5t248 231.5t361 82q203 0 362 -82t248 -231.5t89 -342.5q0 -175 -80 -307t-211 -215h256v-211h-526v211q136 37 225.5 164.5t89.5 308.5q0 96 -28.5 183t-83 156t-142.5 110t-199 41t-199 -41t-142 -110t-82.5 -155.5t-28.5 -183.5 q0 -181 90.5 -308.5t226.5 -164.5v-211h-526v211h258q-132 84 -213.5 215.5t-81.5 306.5z" />
<glyph unicode="&#x3c0;" horiz-adv-x="1249" d="M18 801v188h1213v-188h-164v-801h-215v801h-455v-801h-215v801h-164z" />
<glyph unicode="&#x401;" horiz-adv-x="1181" d="M145 0v1366h936v-211h-696v-354h682v-211h-682v-379h696v-211h-936zM276 1587q0 50 35 84.5t86 34.5q49 0 84 -35t35 -84q0 -51 -34.5 -86t-84.5 -35q-51 0 -86 35t-35 86zM705 1587q0 49 35 84t85 35t85.5 -35t35.5 -84q0 -51 -35.5 -86t-85.5 -35t-85 35t-35 86z" />
<glyph unicode="&#x402;" horiz-adv-x="1564" d="M57 1155v211h1067v-211h-413v-350q141 51 309 51q122 0 218 -35.5t154.5 -96.5t88.5 -139t30 -167v-21q0 -138 -65.5 -235t-171.5 -142t-242 -45v213q110 0 175 57.5t65 151.5v21q0 108 -71.5 167.5t-205.5 59.5q-156 0 -284 -51v-594h-240v1155h-414z" />
<glyph unicode="&#x403;" horiz-adv-x="1150" d="M145 0v1366h936v-211h-696v-1155h-240zM451 1481l286 295h205l-338 -295h-153z" />
<glyph unicode="&#x404;" horiz-adv-x="1396" d="M84 682q0 154 55.5 287t151.5 224.5t228 143.5t282 52q357 0 549 -308l-205 -104q-51 88 -144 143.5t-200 55.5q-172 0 -298 -103.5t-161 -271.5h725v-211h-731q29 -180 157 -291t308 -111q108 0 200.5 55t143.5 144l205 -104q-195 -308 -549 -308q-150 0 -282 52 t-228 143.5t-151.5 224.5t-55.5 287z" />
<glyph unicode="&#x405;" horiz-adv-x="1216" d="M57 193l133 184q78 -83 189 -136t244 -53q137 0 205.5 55.5t68.5 131.5q0 46 -27.5 80t-73.5 55.5t-105.5 38.5t-125.5 33.5t-132.5 36t-126 50t-105.5 71t-73.5 103.5t-27.5 144q0 171 138.5 285t359.5 114q316 0 512 -190l-137 -178q-77 77 -180.5 116.5t-214.5 39.5 q-105 0 -168.5 -46.5t-63.5 -123.5q0 -40 27 -70.5t73 -50t106 -36t126 -33.5t131.5 -37.5t125.5 -52.5t106 -74t73 -106.5t27 -146.5q0 -87 -31.5 -162t-94 -134t-166 -92.5t-237.5 -33.5q-351 0 -555 218z" />
<glyph unicode="&#x406;" horiz-adv-x="530" d="M145 0v1366h240v-1366h-240z" />
<glyph unicode="&#x407;" horiz-adv-x="530" d="M-70 1587q0 50 35 84.5t86 34.5q49 0 84 -35t35 -84q0 -51 -34.5 -86t-84.5 -35q-51 0 -86 35t-35 86zM145 0v1366h240v-1366h-240zM358 1587q0 49 35.5 84t85.5 35t85.5 -35t35.5 -84q0 -51 -35.5 -86t-85.5 -35t-85.5 35t-35.5 86z" />
<glyph unicode="&#x408;" horiz-adv-x="985" d="M16 119l111 182q105 -113 233 -113q110 0 175 67.5t65 180.5v930h240v-934q0 -225 -127 -341t-334 -116q-227 0 -363 144z" />
<glyph unicode="&#x409;" horiz-adv-x="2195" d="M57 -25v213q59 0 98.5 18t74 68.5t58 145t40.5 244.5l80 702h927v-510h361q206 0 326 -123.5t120 -304.5t-119.5 -304.5t-326.5 -123.5h-600v1155h-473l-58 -508q-14 -123 -35.5 -220t-47.5 -167t-61.5 -121t-73 -82.5t-86 -50t-96 -25t-108.5 -6.5zM1335 211h328 q102 0 167.5 60t65.5 157t-65.5 157t-167.5 60h-328v-434z" />
<glyph unicode="&#x40a;" horiz-adv-x="2195" d="M145 0v1366h240v-559h711v559h239v-559h387q194 0 307 -116.5t113 -287.5q0 -172 -112.5 -287.5t-307.5 -115.5h-626v596h-711v-596h-240zM1335 211h355q92 0 149 52.5t57 139.5t-57.5 140t-148.5 53h-355v-385z" />
<glyph unicode="&#x40b;" horiz-adv-x="1617" d="M57 1155v211h1067v-211h-413v-350q141 51 309 51q245 0 368 -131.5t123 -362.5v-362h-239v362q0 145 -70 214t-207 69q-156 0 -284 -51v-594h-240v1155h-414z" />
<glyph unicode="&#x40c;" horiz-adv-x="1271" d="M145 0v1366h240v-651l535 651h297l-555 -645l595 -721h-294l-459 575l-119 -139v-436h-240zM518 1481l287 295h205l-338 -295h-154z" />
<glyph unicode="&#x40e;" horiz-adv-x="1304" d="M2 1366h272l377 -797l377 797h272l-569 -1110q-34 -67 -69.5 -114t-85 -87t-116 -60t-151.5 -20q-87 0 -166 29t-114 66l86 196q89 -78 178 -78q80 0 125.5 37.5t97.5 136.5zM293 1616l98 82q97 -135 262 -135q81 0 148 35.5t112 99.5l99 -82q-62 -84 -156 -132t-203 -48 q-107 0 -201.5 48t-158.5 132z" />
<glyph unicode="&#x40f;" horiz-adv-x="1480" d="M145 0v1366h240v-1155h711v1155h239v-1366h-475v-262h-239v262h-476z" />
<glyph unicode="&#x410;" horiz-adv-x="1378" d="M2 0l537 1366h299l536 -1366h-272l-101 262h-626l-101 -262h-272zM442 473h492l-246 651z" />
<glyph unicode="&#x411;" horiz-adv-x="1245" d="M145 0v1366h936v-211h-696v-299h360q206 0 326.5 -123.5t120.5 -304.5t-120 -304.5t-327 -123.5h-600zM385 211h328q102 0 167.5 60t65.5 157t-65.5 157t-167.5 60h-328v-434z" />
<glyph unicode="&#x412;" horiz-adv-x="1327" d="M145 0v1366h672q182 0 285.5 -99t103.5 -249q0 -124 -68.5 -208t-168.5 -105q110 -17 187 -114t77 -222q0 -163 -105 -266t-292 -103h-691zM385 211h393q98 0 153.5 50.5t55.5 139.5q0 81 -55 135t-154 54h-393v-379zM385 801h383q90 0 141.5 49t51.5 127 q0 79 -51.5 128.5t-141.5 49.5h-383v-354z" />
<glyph unicode="&#x413;" horiz-adv-x="1150" d="M145 0v1366h936v-211h-696v-1155h-240z" />
<glyph unicode="&#x414;" horiz-adv-x="1499" d="M57 188q49 5 81 17t64 41.5t53.5 80.5t40 134t32.5 203l80 702h927v-1155h127v-463h-239v252h-926v-252h-240v440zM385 211h711v944h-473l-58 -508q-36 -304 -180 -436z" />
<glyph unicode="&#x415;" horiz-adv-x="1181" d="M145 0v1366h936v-211h-696v-354h682v-211h-682v-379h696v-211h-936z" />
<glyph unicode="&#x416;" horiz-adv-x="1910" d="M14 0l596 721l-555 645h297l484 -590v590h239v-590l484 590h296l-555 -645l596 -721h-294l-459 575l-68 -79v-496h-239v496l-68 79l-459 -575h-295z" />
<glyph unicode="&#x417;" horiz-adv-x="1226" d="M49 197l129 157q65 -75 178.5 -120.5t225.5 -45.5q145 0 228 56.5t83 152.5q0 193 -330 193h-274v211h274q138 0 222.5 45t84.5 135q0 92 -85.5 142.5t-217.5 50.5q-105 0 -204.5 -39.5t-172.5 -112.5l-122 149q81 96 219 155.5t303 59.5q226 0 373 -100t147 -268 q0 -65 -26 -121.5t-69.5 -94.5t-95 -62.5t-106.5 -34.5q52 -5 106 -28t102 -62.5t78.5 -103t30.5 -138.5q0 -173 -152 -285.5t-388 -112.5q-177 0 -323 63t-218 159z" />
<glyph unicode="&#x418;" horiz-adv-x="1474" d="M145 0v1366h240v-948l698 948h246v-1366h-239v975l-713 -975h-232z" />
<glyph unicode="&#x419;" horiz-adv-x="1474" d="M145 0v1366h240v-948l698 948h246v-1366h-239v975l-713 -975h-232zM377 1616l98 82q97 -135 262 -135q81 0 148 35.5t112 99.5l99 -82q-62 -84 -156 -132t-203 -48q-107 0 -201.5 48t-158.5 132z" />
<glyph unicode="&#x41a;" horiz-adv-x="1271" d="M145 0v1366h240v-651l535 651h297l-555 -645l595 -721h-294l-459 575l-119 -139v-436h-240z" />
<glyph unicode="&#x41b;" horiz-adv-x="1480" d="M57 -25v213q59 0 98.5 18t74 68.5t58 145t40.5 244.5l80 702h927v-1366h-239v1155h-473l-58 -508q-14 -123 -35.5 -220t-47.5 -167t-61.5 -121t-73 -82.5t-86 -50t-96 -25t-108.5 -6.5z" />
<glyph unicode="&#x41c;" horiz-adv-x="1710" d="M145 0v1366h338l371 -899l373 899h338v-1366h-240v1014l-420 -1014h-102l-418 1014v-1014h-240z" />
<glyph unicode="&#x41d;" horiz-adv-x="1480" d="M145 0v1366h240v-559h711v559h239v-1366h-239v596h-711v-596h-240z" />
<glyph unicode="&#x41e;" horiz-adv-x="1566" d="M84 682q0 202 88.5 363.5t248 252.5t361.5 91q151 0 281.5 -53.5t222 -147t143.5 -224.5t52 -282t-52 -282t-143.5 -224.5t-222 -147t-281.5 -53.5q-202 0 -361.5 91t-248 252.5t-88.5 363.5zM330 682q0 -214 124 -354t328 -140q203 0 328 140t125 354q0 215 -125 354.5 t-328 139.5q-204 0 -328 -139t-124 -355z" />
<glyph unicode="&#x41f;" horiz-adv-x="1480" d="M145 0v1366h1190v-1366h-239v1155h-711v-1155h-240z" />
<glyph unicode="&#x420;" horiz-adv-x="1245" d="M145 0v1366h600q207 0 327 -123.5t120 -304.5t-120.5 -304.5t-326.5 -123.5h-360v-510h-240zM385 721h328q102 0 167.5 60t65.5 157t-65.5 157t-167.5 60h-328v-434z" />
<glyph unicode="&#x421;" horiz-adv-x="1396" d="M84 682q0 154 55.5 287t151.5 224.5t228 143.5t282 52q357 0 549 -308l-205 -104q-51 88 -144 143.5t-200 55.5q-203 0 -337 -139.5t-134 -354.5t134 -354.5t337 -139.5q108 0 200.5 55t143.5 144l205 -104q-195 -308 -549 -308q-150 0 -282 52t-228 143.5t-151.5 224.5 t-55.5 287z" />
<glyph unicode="&#x422;" horiz-adv-x="1181" d="M57 1155v211h1067v-211h-413v-1155h-240v1155h-414z" />
<glyph unicode="&#x423;" horiz-adv-x="1304" d="M2 1366h272l377 -797l377 797h272l-569 -1110q-34 -67 -69.5 -114t-85 -87t-116 -60t-151.5 -20q-87 0 -166 29t-114 66l86 196q89 -78 178 -78q80 0 125.5 37.5t97.5 136.5z" />
<glyph unicode="&#x424;" horiz-adv-x="1708" d="M84 682q0 232 172 376t477 169v139h240v-137q303 -25 476 -170.5t173 -376.5q0 -234 -172.5 -378t-476.5 -169v-135h-240v135q-305 25 -477 169t-172 378zM330 682q0 -136 104.5 -223t298.5 -109v664q-194 -22 -298.5 -109t-104.5 -223zM973 350q194 20 298.5 107.5 t104.5 224.5q0 136 -104.5 223t-298.5 109v-664z" />
<glyph unicode="&#x425;" horiz-adv-x="1353" d="M6 0l512 700l-481 666h287l352 -502l350 502h289l-479 -664l510 -702h-287l-383 535l-383 -535h-287z" />
<glyph unicode="&#x426;" horiz-adv-x="1499" d="M145 0v1366h240v-1155h711v1155h239v-1155h127v-463h-239v252h-1078z" />
<glyph unicode="&#x427;" horiz-adv-x="1292" d="M106 1004v362h240v-362q0 -145 70 -214t207 -69q156 0 284 51v594h240v-1366h-240v561q-141 -51 -309 -51q-245 0 -368.5 132t-123.5 362z" />
<glyph unicode="&#x428;" horiz-adv-x="1951" d="M145 0v1366h240v-1155h471v1155h240v-1155h471v1155h239v-1366h-1661z" />
<glyph unicode="&#x429;" horiz-adv-x="1970" d="M145 0v1366h240v-1155h471v1155h240v-1155h471v1155h239v-1155h127v-463h-239v252h-1549z" />
<glyph unicode="&#x42a;" horiz-adv-x="1570" d="M57 1155v211h654v-510h360q206 0 326.5 -123.5t120.5 -304.5t-120 -304.5t-327 -123.5h-600v1155h-414zM711 211h327q102 0 168 60t66 157t-66 157t-168 60h-327v-434z" />
<glyph unicode="&#x42b;" horiz-adv-x="1703" d="M145 0v1366h240v-510h360q206 0 326.5 -123.5t120.5 -304.5t-120 -304.5t-327 -123.5h-600zM385 211h328q102 0 167.5 60t65.5 157t-65.5 157t-167.5 60h-328v-434zM1319 0v1366h240v-1366h-240z" />
<glyph unicode="&#x42c;" horiz-adv-x="1245" d="M145 0v1366h240v-510h360q206 0 326.5 -123.5t120.5 -304.5t-120 -304.5t-327 -123.5h-600zM385 211h328q102 0 167.5 60t65.5 157t-65.5 157t-167.5 60h-328v-434z" />
<glyph unicode="&#x42d;" horiz-adv-x="1396" d="M47 283l205 104q51 -89 143.5 -144t200.5 -55q179 0 307 111.5t156 290.5h-729v211h725q-35 168 -161 271.5t-298 103.5q-107 0 -200 -55.5t-144 -143.5l-205 104q192 308 549 308q150 0 282 -52t228 -143.5t151.5 -224.5t55.5 -287t-55.5 -287t-151.5 -224.5 t-228 -143.5t-282 -52q-354 0 -549 308z" />
<glyph unicode="&#x42e;" horiz-adv-x="2078" d="M145 0v1366h240v-559h219q40 259 228.5 420.5t461.5 161.5q151 0 281.5 -53.5t222 -147t143.5 -224.5t52 -282t-52 -282t-143.5 -224.5t-222 -147t-281.5 -53.5q-188 0 -339.5 79t-243.5 220t-111 322h-215v-596h-240zM842 682q0 -214 124 -354t328 -140q203 0 328 140 t125 354q0 215 -125 354.5t-328 139.5q-204 0 -328 -139t-124 -355z" />
<glyph unicode="&#x42f;" horiz-adv-x="1286" d="M84 0l334 537q-64 10 -120.5 40t-103 78.5t-73.5 121.5t-27 161q0 190 123 309t324 119h600v-1366h-240v510h-237l-304 -510h-276zM340 938q0 -97 65.5 -157t167.5 -60h328v434h-328q-102 0 -167.5 -60t-65.5 -157z" />
<glyph unicode="&#x430;" horiz-adv-x="1097" d="M80 303q0 82 30.5 145.5t81 101t110 56.5t122.5 19q210 0 319 -127v147q0 85 -63.5 134.5t-167.5 49.5q-166 0 -293 -124l-88 149q169 160 416 160q86 0 157.5 -19.5t129.5 -60t91 -112t33 -167.5v-655h-215v106q-56 -63 -138.5 -97t-180.5 -34q-62 0 -122 21 t-110.5 60.5t-81 103.5t-30.5 143zM297 299q0 -79 59.5 -127.5t151.5 -48.5q73 0 136 26.5t99 75.5v150q-36 49 -99 75.5t-136 26.5q-92 0 -151.5 -48.5t-59.5 -129.5z" />
<glyph unicode="&#x431;" horiz-adv-x="1181" d="M80 541q0 354 122 528t376 205q154 23 212 43t58 49h211q0 -216 -422 -262q-167 -19 -255.5 -91t-111.5 -173q60 82 155 128t202 46q136 0 244.5 -72t165.5 -189.5t57 -254.5q0 -105 -34.5 -199.5t-98 -166.5t-161 -114.5t-214.5 -42.5q-156 0 -272 74.5t-175 202 t-59 289.5zM301 500q0 -141 76.5 -237.5t208.5 -96.5q133 0 209.5 96.5t76.5 237.5q0 134 -77 228.5t-209 94.5q-131 0 -208 -94.5t-77 -228.5z" />
<glyph unicode="&#x432;" horiz-adv-x="1171" d="M139 0v989h592q137 0 215 -72t78 -182q0 -85 -47 -144t-119 -81q80 -19 133 -87t53 -155q0 -119 -79 -193.5t-220 -74.5h-606zM354 188h346q57 0 90 29.5t33 81.5q0 47 -33 80t-90 33h-346v-224zM354 600h340q51 0 81 28t30 70q0 46 -29.5 74.5t-81.5 28.5h-340v-201z " />
<glyph unicode="&#x433;" horiz-adv-x="925" d="M139 0v989h750v-188h-535v-801h-215z" />
<glyph unicode="&#x434;" horiz-adv-x="1169" d="M37 178q46 11 73.5 37t51 96t39.5 197l59 481h764v-801h109v-440h-215v252h-666v-252h-215v430zM285 188h524v613h-358l-35 -318q-20 -199 -131 -295z" />
<glyph unicode="&#x435;" horiz-adv-x="1140" d="M78 496q0 142 63.5 260.5t179.5 188t259 69.5q220 0 353.5 -151.5t133.5 -387.5v-51h-764q13 -117 96.5 -194.5t218.5 -77.5q75 0 152.5 28.5t128.5 79.5l98 -141q-73 -70 -177 -107t-224 -37q-225 0 -371.5 144.5t-146.5 376.5zM301 575h557q-2 46 -18.5 90.5 t-48.5 84.5t-86.5 64t-124.5 24q-66 0 -119.5 -23.5t-86 -63t-51 -84t-22.5 -92.5z" />
<glyph unicode="&#x436;" horiz-adv-x="1497" d="M12 0l420 541l-412 448h267l354 -387v387h215v-387l354 387h267l-412 -448l420 -541h-271l-303 408l-55 -58v-350h-215v350l-55 58l-303 -408h-271z" />
<glyph unicode="&#x437;" horiz-adv-x="1040" d="M41 135l100 137q135 -120 355 -120q113 0 177 36t64 97q0 129 -260 129h-211v172h211q113 0 177.5 33t64.5 96q0 54 -67.5 88.5t-170.5 34.5q-198 0 -317 -119l-107 131q159 162 414 162q218 1 344.5 -71t126.5 -198q0 -64 -40 -116.5t-98 -82t-124 -38.5q47 -3 95 -19 t91 -44t70 -73.5t27 -101.5q0 -130 -126 -211.5t-341 -81.5q-292 0 -455 160z" />
<glyph unicode="&#x438;" horiz-adv-x="1163" d="M139 0v989h215v-665l455 665h215v-989h-215v684l-463 -684h-207z" />
<glyph unicode="&#x439;" horiz-adv-x="1163" d="M139 0v989h215v-665l455 665h215v-989h-215v684l-463 -684h-207zM221 1274l98 82q97 -135 263 -135q81 0 148 35.5t112 99.5l98 -82q-62 -84 -155.5 -132t-202.5 -48q-108 0 -202.5 48t-158.5 132z" />
<glyph unicode="&#x43a;" horiz-adv-x="1077" d="M139 0v989h215v-477l437 477h266l-412 -448l420 -541h-270l-303 408l-138 -142v-266h-215z" />
<glyph unicode="&#x43b;" horiz-adv-x="1163" d="M37 -25v177q64 0 101.5 81.5t62.5 274.5l59 481h764v-989h-215v801h-358l-35 -318q-29 -265 -121.5 -386.5t-257.5 -121.5z" />
<glyph unicode="&#x43c;" horiz-adv-x="1386" d="M139 0v989h281l274 -639l271 639h282v-989h-215v688l-295 -688h-86l-297 688v-688h-215z" />
<glyph unicode="&#x43d;" horiz-adv-x="1163" d="M139 0v989h215v-389h455v389h215v-989h-215v412h-455v-412h-215z" />
<glyph unicode="&#x43e;" horiz-adv-x="1173" d="M78 496q0 106 36 200.5t100.5 165t160.5 111.5t211 41q154 0 271.5 -71t178 -187.5t60.5 -259.5q0 -144 -60.5 -261.5t-178 -188.5t-271.5 -71q-115 0 -211 41.5t-160.5 112t-100.5 165.5t-36 202zM301 496q0 -138 77 -234t208 -96q133 0 209.5 95.5t76.5 234.5 q0 137 -76.5 232t-209.5 95q-131 0 -208 -95t-77 -232z" />
<glyph unicode="&#x43f;" horiz-adv-x="1163" d="M139 0v989h885v-989h-215v801h-455v-801h-215z" />
<glyph unicode="&#x440;" horiz-adv-x="1183" d="M139 -377v1366h215v-135q56 75 139.5 117.5t178.5 42.5q196 0 317 -139t121 -379q0 -241 -121.5 -381t-316.5 -140q-94 0 -176 41.5t-142 120.5v-514h-215zM354 299q36 -55 108.5 -94t145.5 -39q126 0 202.5 92t76.5 238q0 144 -76.5 235.5t-202.5 91.5q-74 0 -146 -38.5 t-108 -94.5v-391z" />
<glyph unicode="&#x441;" horiz-adv-x="1017" d="M78 496q0 225 143.5 371.5t368.5 146.5q248 0 379 -176l-142 -131q-82 116 -227 116q-134 0 -216.5 -91t-82.5 -236q0 -146 82.5 -238t216.5 -92q142 0 227 117l142 -131q-132 -177 -379 -177q-225 0 -368.5 147t-143.5 374z" />
<glyph unicode="&#x442;" horiz-adv-x="856" d="M37 801v188h782v-188h-284v-801h-216v801h-282z" />
<glyph unicode="&#x443;" horiz-adv-x="1030" d="M-4 989h229l289 -741l289 741h231l-477 -1167q-49 -120 -133 -170.5t-207 -52.5q-67 0 -121 14l33 192q37 -16 82 -16q53 0 86.5 19t54.5 67l49 113z" />
<glyph unicode="&#x444;" horiz-adv-x="1705" d="M111 494q0 241 102 380.5t266 139.5q162 0 266 -162v514h216v-512q47 75 116.5 117.5t149.5 42.5q164 0 266 -139t102 -379q0 -241 -102 -381t-266 -140q-162 0 -266 162v-514h-216v512q-47 -75 -116.5 -117.5t-149.5 -42.5q-164 0 -266 139.5t-102 379.5zM328 494 q0 -144 60 -236t159 -92q58 0 114 38.5t84 94.5v391q-28 55 -84.5 94t-113.5 39q-99 0 -159 -91.5t-60 -237.5zM961 299q28 -55 84.5 -94t113.5 -39q99 0 159 92t60 238q0 144 -60 235.5t-159 91.5q-58 0 -114 -38.5t-84 -94.5v-391z" />
<glyph unicode="&#x445;" horiz-adv-x="1015" d="M10 0l363 508l-342 481h241l236 -336l233 336h242l-342 -481l365 -508h-242l-256 365l-258 -365h-240z" />
<glyph unicode="&#x446;" horiz-adv-x="1169" d="M139 0v989h215v-801h455v801h215v-801h109v-440h-215v252h-779z" />
<glyph unicode="&#x447;" horiz-adv-x="1126" d="M104 645v344h215v-266q0 -112 56.5 -156.5t179.5 -44.5q135 0 217 37v430h215v-989h-215v385q-106 -53 -285 -53q-204 0 -293.5 78t-89.5 235z" />
<glyph unicode="&#x448;" horiz-adv-x="1619" d="M139 0v989h215v-801h348v801h216v-801h348v801h215v-989h-1342z" />
<glyph unicode="&#x449;" horiz-adv-x="1646" d="M139 0v989h215v-801h348v801h216v-801h348v801h215v-801h129v-440h-215v252h-1256z" />
<glyph unicode="&#x44a;" horiz-adv-x="1286" d="M37 801v188h498v-358h350q157 0 242 -90.5t85 -225.5q0 -134 -87 -224.5t-240 -90.5h-566v801h-282zM535 188h323q63 0 99 35t36 92t-36 92t-99 35h-323v-254z" />
<glyph unicode="&#x44b;" horiz-adv-x="1536" d="M139 0v989h215v-358h351q157 0 242 -90.5t85 -225.5q0 -134 -87 -224.5t-240 -90.5h-566zM354 188h324q63 0 99 35t36 92t-36 92t-99 35h-324v-254zM1182 0v989h215v-989h-215z" />
<glyph unicode="&#x44c;" horiz-adv-x="1105" d="M139 0v989h215v-358h351q157 0 242 -90.5t85 -225.5q0 -134 -87 -224.5t-240 -90.5h-566zM354 188h324q63 0 99 35t36 92t-36 92t-99 35h-324v-254z" />
<glyph unicode="&#x44d;" horiz-adv-x="1017" d="M49 152l133 124q42 -58 103.5 -91t132.5 -33q115 0 191.5 67t99.5 187h-447v186h445q-23 116 -100 181t-189 65q-71 0 -132.5 -33t-103.5 -92l-133 125q131 176 379 176q225 0 368.5 -146.5t143.5 -371.5q0 -227 -143.5 -374t-368.5 -147q-247 0 -379 177z" />
<glyph unicode="&#x44e;" horiz-adv-x="1615" d="M139 0v989h215v-389h174q33 181 167 297.5t333 116.5q154 0 271.5 -71t178 -187.5t60.5 -259.5q0 -144 -60.5 -261.5t-178 -188.5t-271.5 -71q-206 0 -340.5 123t-161.5 314h-172v-412h-215zM743 496q0 -138 77 -234t208 -96q133 0 210 95.5t77 234.5q0 137 -77 232 t-210 95q-131 0 -208 -95t-77 -232z" />
<glyph unicode="&#x44f;" horiz-adv-x="1148" d="M104 0l244 369q-102 23 -166.5 102.5t-64.5 202.5q0 134 87 224.5t240 90.5h566v-989h-215v358h-228l-217 -358h-246zM336 674q0 -57 36 -92t99 -35h324v254h-324q-61 0 -98 -35.5t-37 -91.5z" />
<glyph unicode="&#x451;" horiz-adv-x="1140" d="M78 496q0 142 63.5 260.5t179.5 188t259 69.5q220 0 353.5 -151.5t133.5 -387.5v-51h-764q13 -117 96.5 -194.5t218.5 -77.5q75 0 152.5 28.5t128.5 79.5l98 -141q-73 -70 -177 -107t-224 -37q-225 0 -371.5 144.5t-146.5 376.5zM246 1245q0 50 35 84.5t86 34.5 q49 0 83.5 -34.5t34.5 -84.5q0 -51 -34 -86t-84 -35q-51 0 -86 35t-35 86zM301 575h557q-2 46 -18.5 90.5t-48.5 84.5t-86.5 64t-124.5 24q-66 0 -119.5 -23.5t-86 -63t-51 -84t-22.5 -92.5zM674 1245q0 49 35.5 84t85.5 35t85 -35t35 -84q0 -51 -35 -86t-85 -35t-85.5 35 t-35.5 86z" />
<glyph unicode="&#x452;" horiz-adv-x="1169" d="M18 1087v127h127v152h215v-152h310v-127h-310v-233q56 66 149 113t202 47q159 0 239 -80t80 -234v-757q0 -161 -84 -252.5t-244 -91.5q-82 0 -130 16t-103 55l63 160q62 -55 138 -55q66 0 105.5 42t39.5 126v680q0 109 -51.5 154.5t-149.5 45.5q-77 0 -144.5 -38.5 t-109.5 -94.5v-690h-215v1087h-127z" />
<glyph unicode="&#x453;" horiz-adv-x="925" d="M139 0v989h750v-188h-535v-801h-215zM391 1139l287 295h205l-338 -295h-154z" />
<glyph unicode="&#x454;" horiz-adv-x="1017" d="M78 496q0 225 143.5 371.5t368.5 146.5q248 0 379 -176l-133 -125q-42 59 -103.5 92t-132.5 33q-114 0 -191 -65t-100 -181h447v-186h-449q22 -120 99.5 -187t193.5 -67q71 0 132.5 33t103.5 91l133 -124q-132 -177 -379 -177q-225 0 -368.5 147t-143.5 374z" />
<glyph unicode="&#x455;" horiz-adv-x="966" d="M53 129l99 156q56 -57 149.5 -98.5t185.5 -41.5q94 0 144.5 37t50.5 97q0 39 -33 65t-85.5 40.5t-116.5 27.5t-128 33t-116.5 50t-85.5 85.5t-33 132.5q0 127 104 214t285 87q227 0 385 -140l-90 -151q-46 53 -124.5 86t-168.5 33q-84 0 -134 -34t-50 -87q0 -31 25.5 -53 t67.5 -34t96 -25.5t110 -25t110 -35.5t96 -55.5t67.5 -85.5t25.5 -124q0 -135 -109 -221.5t-303 -86.5q-127 0 -237.5 40t-186.5 114z" />
<glyph unicode="&#x456;" d="M113 1243q0 55 39.5 94t93.5 39q56 0 94.5 -39t38.5 -94t-38.5 -94t-94.5 -39q-54 0 -93.5 39t-39.5 94zM139 0v989h215v-989h-215z" />
<glyph unicode="&#x457;" d="M-88 1245q0 50 35 84.5t86 34.5q49 0 84 -35t35 -84q0 -51 -34.5 -86t-84.5 -35q-51 0 -86 35t-35 86zM139 0v989h215v-989h-215zM340 1245q0 49 35.5 84t85.5 35t85.5 -35t35.5 -84q0 -51 -35.5 -86t-85.5 -35t-85.5 35t-35.5 86z" />
<glyph unicode="&#x458;" d="M-207 -330l64 160q62 -55 137 -55q66 0 105.5 42t39.5 126v1046h215v-1046q0 -161 -83.5 -252.5t-243.5 -91.5q-82 0 -131 16t-103 55zM113 1243q0 55 39.5 94t93.5 39q56 0 94.5 -39t38.5 -94t-38.5 -94t-94.5 -39q-54 0 -93.5 39t-39.5 94z" />
<glyph unicode="&#x459;" horiz-adv-x="1775" d="M37 -25v177q64 0 101.5 81.5t62.5 274.5l59 481h764v-358h350q157 0 242.5 -90.5t85.5 -225.5q0 -134 -87 -224.5t-241 -90.5h-565v801h-358l-35 -318q-29 -265 -121.5 -386.5t-257.5 -121.5zM1024 188h324q63 0 99 35t36 92t-36 92t-99 35h-324v-254z" />
<glyph unicode="&#x45a;" horiz-adv-x="1775" d="M139 0v989h215v-389h455v389h215v-389h367q148 0 229.5 -86t81.5 -215q0 -127 -82.5 -213t-228.5 -86h-582v412h-455v-412h-215zM1024 188h340q56 0 87.5 31t31.5 80q0 51 -31.5 82t-87.5 31h-340v-224z" />
<glyph unicode="&#x45b;" horiz-adv-x="1169" d="M18 1087v127h127v152h215v-152h310v-127h-310v-233q56 66 149 113t202 47q159 0 239 -80t80 -234v-700h-215v623q0 109 -51.5 154.5t-149.5 45.5q-77 0 -144.5 -38.5t-109.5 -94.5v-690h-215v1087h-127z" />
<glyph unicode="&#x45c;" horiz-adv-x="1077" d="M139 0v989h215v-477l437 477h266l-412 -448l420 -541h-270l-303 408l-138 -142v-266h-215zM420 1139l287 295h204l-338 -295h-153z" />
<glyph unicode="&#x45e;" horiz-adv-x="1030" d="M-4 989h229l289 -741l289 741h231l-477 -1167q-49 -120 -133 -170.5t-207 -52.5q-67 0 -121 14l33 192q37 -16 82 -16q53 0 86.5 19t54.5 67l49 113zM156 1274l98 82q97 -135 262 -135q81 0 148 35.5t112 99.5l98 -82q-62 -84 -155.5 -132t-202.5 -48q-107 0 -201.5 48 t-158.5 132z" />
<glyph unicode="&#x45f;" horiz-adv-x="1163" d="M139 0v989h215v-801h455v801h215v-989h-334v-260h-215v260h-336z" />
<glyph unicode="&#x490;" horiz-adv-x="1150" d="M145 0v1366h697v252h239v-463h-696v-1155h-240z" />
<glyph unicode="&#x491;" horiz-adv-x="925" d="M139 0v989h535v260h215v-448h-535v-801h-215z" />
<glyph unicode="&#x2000;" horiz-adv-x="915" />
<glyph unicode="&#x2001;" horiz-adv-x="1831" />
<glyph unicode="&#x2002;" horiz-adv-x="915" />
<glyph unicode="&#x2003;" horiz-adv-x="1831" />
<glyph unicode="&#x2004;" horiz-adv-x="610" />
<glyph unicode="&#x2005;" horiz-adv-x="457" />
<glyph unicode="&#x2006;" horiz-adv-x="305" />
<glyph unicode="&#x2007;" horiz-adv-x="305" />
<glyph unicode="&#x2008;" horiz-adv-x="228" />
<glyph unicode="&#x2009;" horiz-adv-x="366" />
<glyph unicode="&#x200a;" horiz-adv-x="101" />
<glyph unicode="&#x2010;" horiz-adv-x="614" d="M61 403v185h492v-185h-492z" />
<glyph unicode="&#x2011;" horiz-adv-x="614" d="M61 403v185h492v-185h-492z" />
<glyph unicode="&#x2012;" horiz-adv-x="614" d="M61 403v185h492v-185h-492z" />
<glyph unicode="&#x2013;" horiz-adv-x="1214" d="M61 403v185h1092v-185h-1092z" />
<glyph unicode="&#x2014;" horiz-adv-x="1705" d="M61 403v185h1584v-185h-1584z" />
<glyph unicode="&#x2018;" horiz-adv-x="499" d="M86 1038q0 103 52.5 194.5t140.5 153.5l96 -77q-51 -30 -94.5 -86t-53.5 -107q12 4 35 4q53 0 88 -36t35 -93t-41 -98t-98 -41q-66 0 -113 50t-47 136z" />
<glyph unicode="&#x2019;" horiz-adv-x="499" d="M106 1245q0 58 41.5 99.5t98.5 41.5q66 0 113 -50t47 -136q0 -103 -53 -195.5t-140 -154.5l-96 80q51 30 94 85.5t53 106.5q-18 -6 -35 -6q-53 0 -88 36t-35 93z" />
<glyph unicode="&#x201a;" horiz-adv-x="501" d="M106 123q0 58 41.5 99.5t98.5 41.5q66 0 113 -50t47 -136q0 -103 -53 -195.5t-140 -154.5l-96 79q50 30 93.5 85.5t53.5 107.5q-18 -6 -35 -6q-53 0 -88 36t-35 93z" />
<glyph unicode="&#x201c;" horiz-adv-x="878" d="M94 1038q0 103 52 194.5t139 153.5l98 -77q-51 -30 -94.5 -86t-52.5 -107q8 4 34 4q52 0 86.5 -36.5t34.5 -92.5q0 -57 -40.5 -98t-98.5 -41q-66 0 -112 50t-46 136zM473 1038q0 103 52 194.5t139 153.5l98 -77q-51 -30 -95 -86t-53 -107q8 4 35 4q52 0 86.5 -36.5 t34.5 -92.5q0 -57 -40.5 -98t-98.5 -41q-66 0 -112 50t-46 136z" />
<glyph unicode="&#x201d;" horiz-adv-x="878" d="M106 1245q0 58 41.5 99.5t98.5 41.5q66 0 113 -50t47 -136q0 -103 -53 -195.5t-140 -154.5l-96 80q51 30 94 85.5t53 106.5q-18 -6 -35 -6q-53 0 -88 36t-35 93zM485 1245q0 58 41.5 99.5t98.5 41.5q66 0 112.5 -50t46.5 -136q0 -103 -52.5 -195.5t-139.5 -154.5l-96 80 q51 30 94 85.5t53 106.5q-18 -6 -35 -6q-53 0 -88 36t-35 93z" />
<glyph unicode="&#x201e;" horiz-adv-x="880" d="M106 123q0 58 41.5 99.5t98.5 41.5q66 0 113 -50t47 -136q0 -103 -53 -195.5t-140 -154.5l-96 79q50 30 93.5 85.5t53.5 107.5q-18 -6 -35 -6q-53 0 -88 36t-35 93zM485 123q0 58 41.5 99.5t98.5 41.5q66 0 112.5 -50t46.5 -136q0 -103 -52.5 -195.5t-139.5 -154.5 l-96 79q50 30 93.5 85.5t53.5 107.5q-18 -6 -35 -6q-53 0 -88 36t-35 93z" />
<glyph unicode="&#x2020;" horiz-adv-x="555" d="M43 1077v111l182 -6l-10 204h123l-8 -204l182 6v-111l-182 8l8 -415h-123l10 415z" />
<glyph unicode="&#x2021;" horiz-adv-x="555" d="M43 569v111l180 -8v413l-180 -8v111l180 -6l-8 204h123l-8 -204l182 6v-111l-182 8v-413l182 8v-111l-182 6l8 -206h-123l8 206z" />
<glyph unicode="&#x2022;" horiz-adv-x="733" d="M135 496q0 97 68.5 165t165.5 68t165 -68t68 -165q0 -96 -68 -164t-165 -68t-165.5 68.5t-68.5 163.5z" />
<glyph unicode="&#x2026;" horiz-adv-x="1503" d="M106 121q0 59 42 101t100 42t100.5 -42t42.5 -101q0 -57 -42.5 -99t-100.5 -42t-100 42t-42 99zM608 121q0 59 42 101t100 42t100.5 -42t42.5 -101q0 -57 -42.5 -99t-100.5 -42t-100 42t-42 99zM1110 121q0 59 41.5 101t99.5 42q59 0 101.5 -42.5t42.5 -100.5 q0 -57 -43 -99t-101 -42t-99.5 42t-41.5 99z" />
<glyph unicode="&#x202f;" horiz-adv-x="366" />
<glyph unicode="&#x2030;" horiz-adv-x="2263" d="M57 1044q0 147 94 244.5t244 97.5q152 0 247 -97.5t95 -244.5q0 -144 -95 -239.5t-247 -95.5q-150 0 -244 95t-94 240zM215 1044q0 -95 50.5 -154t129.5 -59q80 0 131.5 59t51.5 154q0 97 -51.5 157.5t-131.5 60.5q-79 0 -129.5 -60.5t-50.5 -157.5zM264 0l873 1366h137 l-875 -1366h-135zM793 311q0 147 93.5 244.5t243.5 97.5t245 -97.5t95 -244.5q0 -144 -95 -240t-245 -96t-243.5 95.5t-93.5 240.5zM950 311q0 -95 50 -154t130 -59t131.5 59t51.5 154q0 97 -51.5 157t-131.5 60t-130 -59.5t-50 -157.5zM1528 311q0 147 94 244.5t244 97.5 t245 -97.5t95 -244.5q0 -144 -95 -240t-245 -96t-244 95.5t-94 240.5zM1686 311q0 -95 50 -154t130 -59t131 59t51 154q0 97 -51 157t-131 60t-130 -59.5t-50 -157.5z" />
<glyph unicode="&#x2039;" horiz-adv-x="653" d="M61 498l328 362h203l-328 -362l328 -369h-203z" />
<glyph unicode="&#x203a;" horiz-adv-x="653" d="M61 129l328 369l-328 362h203l328 -362l-328 -369h-203z" />
<glyph unicode="&#x2044;" horiz-adv-x="307" d="M-352 0l872 1366h139l-874 -1366h-137z" />
<glyph unicode="&#x205f;" horiz-adv-x="457" />
<glyph unicode="&#x20ac;" horiz-adv-x="1439" d="M51 471v137h80q-2 23 -2 74q0 24 4 78h-82v137h107q66 224 253 358t435 134q357 0 549 -308l-205 -104q-51 88 -144 143.5t-200 55.5q-146 0 -259.5 -75t-168.5 -204h553v-137h-592q-4 -50 -4 -78q0 -51 4 -74h592v-137h-555q55 -131 168.5 -207t261.5 -76 q108 0 200.5 55t143.5 144l205 -104q-195 -308 -549 -308q-249 0 -436.5 134.5t-251.5 361.5h-107z" />
<glyph unicode="&#x2122;" horiz-adv-x="929" d="M35 1313v53h311v-53h-127v-398h-57v398h-127zM420 915v451h88l131 -328l131 328h88v-451h-57v373l-154 -373h-16l-154 373v-373h-57z" />
<glyph unicode="&#x2202;" horiz-adv-x="1173" d="M78 467q0 205 126.5 348t317.5 143q210 0 316 -163q-59 141 -180 265.5t-296 213.5l168 123q108 -60 206 -147.5t180 -198.5t131 -250t49 -283q0 -243 -137.5 -393t-372.5 -150q-152 0 -269.5 67.5t-178 178.5t-60.5 246zM301 467q0 -128 76.5 -214.5t208.5 -86.5 q133 0 209.5 86.5t76.5 214.5t-76.5 214.5t-209.5 86.5q-132 0 -208.5 -86.5t-76.5 -214.5z" />
<glyph unicode="&#x2206;" horiz-adv-x="1378" d="M2 0l537 1366h299l536 -1366h-1372zM342 211h694l-348 913z" />
<glyph unicode="&#x220f;" horiz-adv-x="1542" d="M57 1155v211h1428v-211h-217v-1339h-240v1339h-514v-1339h-240v1339h-217z" />
<glyph unicode="&#x2211;" horiz-adv-x="1189" d="M100 27l441 579l-439 549v211h988v-211h-691l435 -547l-445 -581h701v-211h-990v211z" />
<glyph unicode="&#x221a;" horiz-adv-x="1433" d="M119 664l428 153l229 -600l438 1149h162l-528 -1366h-150l-245 641l-289 -109z" />
<glyph unicode="&#x221e;" horiz-adv-x="1382" d="M59 686q0 67 19.5 128t57.5 112t103.5 81.5t149.5 30.5q99 0 178 -59.5t123 -153.5q46 94 125 153.5t178 59.5q85 0 150.5 -30.5t103.5 -82t57 -112.5t19 -127t-19 -127t-57 -112.5t-103.5 -82t-150.5 -30.5q-99 0 -178 59.5t-125 153.5q-44 -94 -123 -153.5t-178 -59.5 q-84 0 -149.5 31t-103.5 82.5t-57.5 112t-19.5 126.5zM207 686q0 -95 55.5 -155t145.5 -60q74 0 130.5 61t90.5 154q-34 93 -90.5 154t-130.5 61q-90 0 -145.5 -59.5t-55.5 -155.5zM756 686q32 -92 89.5 -152.5t131.5 -60.5q90 0 144.5 58.5t54.5 154.5t-54.5 155.5 t-144.5 59.5q-74 0 -131.5 -61.5t-89.5 -153.5z" />
<glyph unicode="&#x222b;" horiz-adv-x="741" d="M35 -57h125q55 0 93 44.5t38 112.5v1168q0 136 86.5 220.5t204.5 84.5h125v-148h-125q-55 0 -93 -44t-38 -113v-1170q0 -136 -86.5 -219.5t-204.5 -83.5h-125v148z" />
<glyph unicode="&#x2248;" horiz-adv-x="1028" d="M59 420v151q100 -63 228 -63q53 0 98.5 11.5t80.5 27.5t71 32t87.5 27.5t114.5 11.5q133 0 230 -51v-151q-103 65 -230 65q-65 0 -121.5 -17.5t-93 -38.5t-99 -38.5t-138.5 -17.5q-131 0 -228 51zM59 799v151q100 -63 228 -63q65 0 121 17.5t92.5 38.5t99.5 38.5 t139 17.5q126 0 230 -51v-151q-100 63 -230 63q-65 0 -121.5 -17t-93 -38t-99 -38t-138.5 -17q-128 0 -228 49z" />
<glyph unicode="&#x2260;" horiz-adv-x="1028" d="M59 420v137h306l161 252h-467v139h555l144 228h139l-145 -228h217v-139h-305l-162 -252h467v-137h-555l-146 -230h-137l145 230h-217z" />
<glyph unicode="&#x2264;" horiz-adv-x="1028" d="M59 0v137h910v-137h-910zM59 639v154l910 426v-166l-748 -338l748 -336v-164z" />
<glyph unicode="&#x2265;" horiz-adv-x="1028" d="M57 0v137h910v-137h-910zM57 215v164l748 336l-748 338v166l910 -426v-154z" />
<glyph unicode="&#x25ca;" horiz-adv-x="768" d="M39 684l323 682h44l323 -682l-323 -684h-44zM113 684l272 -600l270 600l-272 598z" />
<glyph unicode="&#x25fc;" horiz-adv-x="993" d="M0 0v993h993v-993h-993z" />
<glyph unicode="&#xf8ff;" horiz-adv-x="1366" d="M86 315q0 94 66.5 161t160.5 67h142v280h-140q-94 0 -161.5 68t-67.5 162t67.5 160.5t161.5 66.5t161 -66.5t67 -160.5v-146h280v146q0 93 68 160t162 67t160.5 -66.5t66.5 -160.5t-67 -162t-160 -68h-142v-280h142q94 0 160.5 -67t66.5 -161t-66.5 -161.5t-160.5 -67.5 t-162 67.5t-68 161.5v142h-280v-142q0 -94 -68 -161.5t-162 -67.5t-160.5 67.5t-66.5 161.5zM172 315q0 -60 40.5 -102.5t100.5 -42.5q59 0 100.5 42.5t41.5 102.5v142h-144q-58 0 -98.5 -41.5t-40.5 -100.5zM172 1053q0 -60 41.5 -103t101.5 -43h140v146q0 59 -41 100 t-99 41q-60 0 -101.5 -41t-41.5 -100zM543 543h280v280h-280v-280zM911 315q0 -60 41 -102.5t101 -42.5q58 0 98.5 42.5t40.5 102.5q0 59 -40 100.5t-99 41.5h-142v-142zM911 907h142q58 0 98.5 43t40.5 103q0 59 -40.5 100t-98.5 41q-60 0 -101 -41t-41 -100v-146z" />
</font>
</defs>
</svg>
